<svg xmlns="http://www.w3.org/2000/svg" xmlns:xlink="http://www.w3.org/1999/xlink" width="497" zoomAndPan="magnify" viewBox="0 0 372.75 89.999999" height="120" preserveAspectRatio="xMidYMid meet" version="1.0"><defs><g/><clipPath id="dad3cb5b32"><path d="M 0 43 L 67.4375 43 L 67.4375 70.195312 L 0 70.195312 Z M 0 43 " clip-rule="nonzero"/></clipPath><clipPath id="623727b540"><path d="M 0 16.230469 L 67.4375 16.230469 L 67.4375 49 L 0 49 Z M 0 16.230469 " clip-rule="nonzero"/></clipPath><clipPath id="c9235a765d"><rect x="0" width="266" y="0" height="66"/></clipPath></defs><path fill="#17212a" d="M 33.710938 32.292969 C 41.21875 32.292969 47.292969 38.449219 47.292969 45.941406 C 47.292969 53.488281 41.21875 59.640625 33.710938 59.640625 C 26.207031 59.640625 20.132812 53.484375 20.132812 45.941406 C 20.132812 38.449219 26.207031 32.292969 33.710938 32.292969 Z M 33.710938 32.292969 " fill-opacity="1" fill-rule="evenodd"/><path fill="#ffffff" d="M 33.710938 36.015625 C 34.15625 36.015625 34.601562 36.015625 35.042969 36.113281 C 34.355469 37.007812 33.910156 38.148438 33.910156 39.390625 C 33.910156 42.367188 36.328125 44.800781 39.292969 44.800781 C 40.824219 44.800781 42.207031 44.15625 43.195312 43.113281 C 43.488281 44.007812 43.589844 45 43.589844 45.941406 C 43.589844 51.449219 39.191406 55.917969 33.710938 55.917969 C 28.230469 55.917969 23.785156 51.449219 23.785156 45.941406 C 23.785156 40.480469 28.230469 36.015625 33.710938 36.015625 Z M 28.527344 41.179688 C 29.710938 41.179688 30.699219 42.171875 30.699219 43.363281 C 30.699219 44.554688 29.714844 45.546875 28.527344 45.546875 C 27.339844 45.546875 26.402344 44.554688 26.402344 43.363281 C 26.402344 42.171875 27.339844 41.179688 28.527344 41.179688 Z M 28.527344 41.179688 " fill-opacity="1" fill-rule="evenodd"/><g clip-path="url(#dad3cb5b32)"><path fill="#42160d" d="M -0.015625 56.265625 L -0.015625 61.378906 C -0.015625 66.191406 3.933594 70.164062 8.726562 70.164062 L 58.648438 70.164062 C 63.488281 70.164062 67.4375 66.191406 67.4375 61.378906 L 67.4375 43.855469 L 43.589844 60.335938 C 40.773438 62.320312 37.367188 63.464844 33.710938 63.464844 C 28.921875 63.464844 24.574219 61.527344 21.464844 58.398438 C 15.34375 52.34375 7.492188 51.402344 -0.015625 56.265625 Z M -0.015625 56.265625 " fill-opacity="1" fill-rule="evenodd"/></g><g clip-path="url(#623727b540)"><path fill="#17212a" d="M -0.015625 30.558594 L -0.015625 48.078125 L 23.488281 31.796875 C 23.738281 31.597656 23.933594 31.449219 24.132812 31.351562 C 26.898438 29.515625 30.15625 28.472656 33.710938 28.472656 C 39.339844 28.472656 44.328125 31.152344 47.539062 35.320312 C 53.316406 42.914062 60.527344 43.261719 67.4375 35.570312 L 67.4375 30.558594 C 67.4375 25.742188 63.488281 21.769531 58.648438 21.769531 L 43.933594 21.769531 L 42.75 17.304688 C 42.601562 16.757812 42.304688 16.261719 41.710938 16.261719 L 25.664062 16.261719 C 25.121094 16.261719 24.773438 16.757812 24.625 17.304688 L 23.488281 21.769531 L 8.726562 21.769531 C 3.933594 21.769531 -0.015625 25.742188 -0.015625 30.558594 Z M -0.015625 30.558594 " fill-opacity="1" fill-rule="evenodd"/></g><path fill="#ffffff" d="M 7.242188 26.535156 L 13.316406 26.535156 C 14.304688 26.535156 15.097656 27.332031 15.097656 28.324219 C 15.097656 29.316406 14.304688 30.160156 13.316406 30.160156 L 7.242188 30.160156 C 6.257812 30.160156 5.417969 29.316406 5.417969 28.324219 C 5.414062 27.332031 6.257812 26.535156 7.242188 26.535156 Z M 7.242188 26.535156 " fill-opacity="1" fill-rule="evenodd"/><g transform="matrix(1, 0, 0, 1, 85, 11)"><g clip-path="url(#c9235a765d)"><g fill="#000000" fill-opacity="1"><g transform="translate(0.413084, 52.641007)"><g><path d="M 42.21875 0.0625 C 38.875 0.0625 37.203125 -0.3125 37.203125 -1.0625 L 36.015625 -23.640625 L 29.15625 -0.78125 C 29 -0.332031 27.71875 -0.109375 25.3125 -0.109375 C 22.914062 -0.109375 21.679688 -0.316406 21.609375 -0.734375 L 14.515625 -23.859375 L 13.734375 -1.40625 C 13.691406 -0.84375 12.976562 -0.457031 11.59375 -0.25 C 10.207031 -0.0390625 9.050781 0.0625 8.125 0.0625 C 7.207031 0.0625 6.316406 0.00390625 5.453125 -0.109375 C 3.648438 -0.367188 2.769531 -0.835938 2.8125 -1.515625 L 4.109375 -38.109375 C 4.109375 -39.003906 6.394531 -39.453125 10.96875 -39.453125 C 12.320312 -39.453125 13.972656 -39.347656 15.921875 -39.140625 C 17.878906 -38.929688 18.96875 -38.53125 19.1875 -37.9375 L 25.5 -20.203125 L 31.015625 -37.984375 C 31.347656 -38.960938 33.9375 -39.453125 38.78125 -39.453125 C 40.164062 -39.453125 41.820312 -39.347656 43.75 -39.140625 C 45.6875 -38.929688 46.65625 -38.566406 46.65625 -38.046875 L 48.296875 -1.125 C 48.296875 -0.707031 47.5625 -0.40625 46.09375 -0.21875 C 44.632812 -0.03125 43.34375 0.0625 42.21875 0.0625 Z M 42.21875 0.0625 "/></g></g></g><g fill="#000000" fill-opacity="1"><g transform="translate(49.478548, 52.641007)"><g><path d="M 29.265625 0.109375 C 26.003906 0.109375 24.238281 -0.414062 23.96875 -1.46875 L 22.125 -8.71875 L 13.171875 -8.71875 L 11.53125 -1.75 C 11.3125 -0.582031 9.515625 0 6.140625 0 C 4.335938 0 3.003906 -0.101562 2.140625 -0.3125 C 1.273438 -0.519531 0.84375 -0.675781 0.84375 -0.78125 L 10.8125 -38.890625 C 10.8125 -39.191406 13.378906 -39.34375 18.515625 -39.34375 C 23.660156 -39.34375 26.234375 -39.191406 26.234375 -38.890625 L 35.96875 -0.734375 C 35.96875 -0.472656 35.101562 -0.265625 33.375 -0.109375 C 31.644531 0.0351562 30.273438 0.109375 29.265625 0.109375 Z M 14.578125 -15.875 L 20.484375 -15.875 L 17.953125 -27.515625 L 17.609375 -27.515625 Z M 14.578125 -15.875 "/></g></g></g><g fill="#000000" fill-opacity="1"><g transform="translate(84.364361, 52.641007)"><g><path d="M 4.28125 -29.15625 C 3.644531 -29.15625 3.191406 -30.019531 2.921875 -31.75 C 2.804688 -32.457031 2.75 -33.242188 2.75 -34.109375 C 2.75 -34.972656 2.847656 -35.875 3.046875 -36.8125 C 3.378906 -38.53125 3.941406 -39.390625 4.734375 -39.390625 L 25.546875 -39.390625 C 27.835938 -39.390625 29.320312 -37.3125 30 -33.15625 C 30.144531 -32.25 30.21875 -31.59375 30.21875 -31.1875 L 17.046875 -11.203125 L 27.359375 -11.203125 C 27.390625 -11.203125 27.425781 -11.203125 27.46875 -11.203125 C 28.289062 -11.203125 28.867188 -10.300781 29.203125 -8.5 C 29.359375 -7.632812 29.4375 -6.734375 29.4375 -5.796875 C 29.4375 -4.859375 29.320312 -3.863281 29.09375 -2.8125 C 28.6875 -0.9375 28.050781 0 27.1875 0 L 5.296875 0 C 4.953125 0 4.335938 -1.132812 3.453125 -3.40625 C 2.578125 -5.675781 2.140625 -7.09375 2.140625 -7.65625 C 2.140625 -8.21875 2.195312 -8.570312 2.3125 -8.71875 L 15.484375 -29.15625 Z M 4.28125 -29.15625 "/></g></g></g><g fill="#000000" fill-opacity="1"><g transform="translate(114.073489, 52.641007)"><g><path d="M 21.109375 -23.75 C 21.816406 -23.75 22.171875 -22.4375 22.171875 -19.8125 C 22.171875 -19.019531 22.085938 -18.085938 21.921875 -17.015625 C 21.753906 -15.953125 21.445312 -15.421875 21 -15.421875 L 13.84375 -15.421875 L 13.84375 -9.796875 L 24.203125 -9.796875 C 24.835938 -9.796875 25.269531 -8.96875 25.5 -7.3125 C 25.613281 -6.601562 25.671875 -5.84375 25.671875 -5.03125 C 25.671875 -4.226562 25.554688 -3.1875 25.328125 -1.90625 C 25.097656 -0.632812 24.722656 0 24.203125 0 L 4.953125 0 C 3.523438 0 2.8125 -0.582031 2.8125 -1.75 L 2.8125 -37.9375 C 2.8125 -38.90625 3.242188 -39.390625 4.109375 -39.390625 L 24.25 -39.390625 C 25.039062 -39.390625 25.4375 -37.726562 25.4375 -34.40625 C 25.4375 -31.09375 25.039062 -29.4375 24.25 -29.4375 L 13.84375 -29.4375 L 13.84375 -23.75 Z M 21.109375 -23.75 "/></g></g></g><g fill="#000000" fill-opacity="1"><g transform="translate(139.843828, 52.641007)"><g><path d="M 2.25 -3.328125 L 2.25 -38.328125 C 2.25 -39.117188 4.148438 -39.515625 7.953125 -39.515625 C 11.765625 -39.515625 13.671875 -39.117188 13.671875 -38.328125 L 13.671875 -10.75 L 22.34375 -10.75 C 23.019531 -10.75 23.488281 -9.867188 23.75 -8.109375 C 23.863281 -7.242188 23.921875 -6.359375 23.921875 -5.453125 C 23.921875 -4.554688 23.863281 -3.640625 23.75 -2.703125 C 23.445312 -0.898438 22.957031 0 22.28125 0 L 4.953125 0 C 4.128906 0 3.472656 -0.335938 2.984375 -1.015625 C 2.492188 -1.691406 2.25 -2.460938 2.25 -3.328125 Z M 2.25 -3.328125 "/></g></g></g><g fill="#000000" fill-opacity="1"><g transform="translate(162.350601, 52.641007)"><g><path d="M 19.5625 0.5625 C 14.289062 0.5625 9.992188 -1.160156 6.671875 -4.609375 C 3.347656 -8.066406 1.6875 -13.101562 1.6875 -19.71875 C 1.6875 -26.34375 3.363281 -31.363281 6.71875 -34.78125 C 10.082031 -38.195312 14.414062 -39.90625 19.71875 -39.90625 C 25.03125 -39.90625 29.316406 -38.222656 32.578125 -34.859375 C 35.847656 -31.503906 37.484375 -26.421875 37.484375 -19.609375 C 37.484375 -12.804688 35.8125 -7.742188 32.46875 -4.421875 C 29.132812 -1.097656 24.832031 0.5625 19.5625 0.5625 Z M 19.578125 -29.09375 C 17.785156 -29.09375 16.273438 -28.265625 15.046875 -26.609375 C 13.828125 -24.960938 13.21875 -22.648438 13.21875 -19.671875 C 13.21875 -16.691406 13.800781 -14.398438 14.96875 -12.796875 C 16.132812 -11.203125 17.664062 -10.40625 19.5625 -10.40625 C 21.457031 -10.40625 22.992188 -11.210938 24.171875 -12.828125 C 25.359375 -14.441406 25.953125 -16.75 25.953125 -19.75 C 25.953125 -22.75 25.335938 -25.054688 24.109375 -26.671875 C 22.890625 -28.285156 21.378906 -29.09375 19.578125 -29.09375 Z M 19.578125 -29.09375 "/></g></g></g><g fill="#000000" fill-opacity="1"><g transform="translate(199.543432, 52.641007)"><g><path d="M 19.5625 0.5625 C 14.289062 0.5625 9.992188 -1.160156 6.671875 -4.609375 C 3.347656 -8.066406 1.6875 -13.101562 1.6875 -19.71875 C 1.6875 -26.34375 3.363281 -31.363281 6.71875 -34.78125 C 10.082031 -38.195312 14.414062 -39.90625 19.71875 -39.90625 C 25.03125 -39.90625 29.316406 -38.222656 32.578125 -34.859375 C 35.847656 -31.503906 37.484375 -26.421875 37.484375 -19.609375 C 37.484375 -12.804688 35.8125 -7.742188 32.46875 -4.421875 C 29.132812 -1.097656 24.832031 0.5625 19.5625 0.5625 Z M 19.578125 -29.09375 C 17.785156 -29.09375 16.273438 -28.265625 15.046875 -26.609375 C 13.828125 -24.960938 13.21875 -22.648438 13.21875 -19.671875 C 13.21875 -16.691406 13.800781 -14.398438 14.96875 -12.796875 C 16.132812 -11.203125 17.664062 -10.40625 19.5625 -10.40625 C 21.457031 -10.40625 22.992188 -11.210938 24.171875 -12.828125 C 25.359375 -14.441406 25.953125 -16.75 25.953125 -19.75 C 25.953125 -22.75 25.335938 -25.054688 24.109375 -26.671875 C 22.890625 -28.285156 21.378906 -29.09375 19.578125 -29.09375 Z M 19.578125 -29.09375 "/></g></g></g><g fill="#000000" fill-opacity="1"><g transform="translate(236.736263, 52.641007)"><g><path d="M 19.75 -0.90625 C 19.75 -0.15625 17.890625 0.21875 14.171875 0.21875 C 10.460938 0.21875 8.609375 -0.15625 8.609375 -0.90625 L 8.609375 -29.15625 L 1.859375 -29.15625 C 1.222656 -29.15625 0.769531 -30.019531 0.5 -31.75 C 0.394531 -32.570312 0.34375 -33.410156 0.34375 -34.265625 C 0.34375 -35.128906 0.394531 -35.976562 0.5 -36.8125 C 0.769531 -38.53125 1.222656 -39.390625 1.859375 -39.390625 L 26.34375 -39.390625 C 26.976562 -39.390625 27.425781 -38.53125 27.6875 -36.8125 C 27.800781 -35.976562 27.859375 -35.128906 27.859375 -34.265625 C 27.859375 -33.410156 27.800781 -32.570312 27.6875 -31.75 C 27.425781 -30.019531 26.976562 -29.15625 26.34375 -29.15625 L 19.75 -29.15625 Z M 19.75 -0.90625 "/></g></g></g></g></g><path stroke-linecap="butt" transform="matrix(0.00000000130812, -0.749497, 0.749497, 0.00000000130812, 76.931234, 78.381796)" fill="none" stroke-linejoin="miter" d="M -0.00135655 1.999278 L 89.522191 1.999278 " stroke="#000000" stroke-width="4" stroke-opacity="1" stroke-miterlimit="4"/></svg>