<svg xmlns="http://www.w3.org/2000/svg" xmlns:xlink="http://www.w3.org/1999/xlink" width="179" zoomAndPan="magnify" viewBox="0 0 134.25 98.249997" height="131" preserveAspectRatio="xMidYMid meet" version="1.0"><defs><g/><clipPath id="8029159fe4"><path d="M 28.304688 31 L 104.222656 31 L 104.222656 61 L 28.304688 61 Z M 28.304688 31 " clip-rule="nonzero"/></clipPath><clipPath id="4bf931e8f2"><path d="M 28.304688 0 L 104.222656 0 L 104.222656 36 L 28.304688 36 Z M 28.304688 0 " clip-rule="nonzero"/></clipPath><clipPath id="ce8150321e"><rect x="0" width="119" y="0" height="30"/></clipPath><clipPath id="d3200802e5"><path d="M 0.136719 2 L 3 2 L 3 6 L 0.136719 6 Z M 0.136719 2 " clip-rule="nonzero"/></clipPath><clipPath id="9722189129"><rect x="0" width="116" y="0" height="8"/></clipPath></defs><path fill="#1e1b4b" d="M 66.4375 18.082031 C 74.929688 18.082031 81.800781 25.011719 81.800781 33.445312 C 81.800781 41.9375 74.929688 48.863281 66.4375 48.863281 C 57.945312 48.863281 51.078125 41.933594 51.078125 33.445312 C 51.078125 25.011719 57.945312 18.082031 66.4375 18.082031 Z M 66.4375 18.082031 " fill-opacity="1" fill-rule="evenodd"/><path fill="#ffffff" d="M 66.4375 22.273438 C 66.941406 22.273438 67.445312 22.273438 67.945312 22.382812 C 67.164062 23.390625 66.660156 24.675781 66.660156 26.070312 C 66.660156 29.421875 69.398438 32.160156 72.75 32.160156 C 74.480469 32.160156 76.046875 31.433594 77.164062 30.261719 C 77.5 31.265625 77.609375 32.382812 77.609375 33.445312 C 77.609375 39.644531 72.640625 44.671875 66.4375 44.671875 C 60.238281 44.671875 55.210938 39.644531 55.210938 33.445312 C 55.210938 27.300781 60.238281 22.273438 66.4375 22.273438 Z M 60.574219 28.082031 C 61.914062 28.082031 63.03125 29.199219 63.03125 30.542969 C 63.03125 31.882812 61.914062 33 60.574219 33 C 59.230469 33 58.171875 31.882812 58.171875 30.542969 C 58.171875 29.199219 59.230469 28.082031 60.574219 28.082031 Z M 60.574219 28.082031 " fill-opacity="1" fill-rule="evenodd"/><g clip-path="url(#8029159fe4)"><path fill="#1e1b4b" d="M 28.285156 45.0625 L 28.285156 50.816406 C 28.285156 56.234375 32.753906 60.703125 38.171875 60.703125 L 94.648438 60.703125 C 100.121094 60.703125 104.589844 56.234375 104.589844 50.816406 L 104.589844 31.097656 L 77.609375 49.644531 C 74.425781 51.878906 70.574219 53.164062 66.4375 53.164062 C 61.019531 53.164062 56.105469 50.984375 52.585938 47.464844 C 45.660156 40.652344 36.777344 39.589844 28.285156 45.0625 Z M 28.285156 45.0625 " fill-opacity="1" fill-rule="evenodd"/></g><g clip-path="url(#4bf931e8f2)"><path fill="#1e1b4b" d="M 28.285156 16.128906 L 28.285156 35.847656 L 54.875 17.523438 C 55.15625 17.300781 55.378906 17.132812 55.601562 17.023438 C 58.730469 14.957031 62.417969 13.78125 66.4375 13.78125 C 72.804688 13.78125 78.449219 16.800781 82.078125 21.492188 C 88.617188 30.039062 96.769531 30.429688 104.589844 21.769531 L 104.589844 16.128906 C 104.589844 10.710938 100.121094 6.242188 94.648438 6.242188 L 78 6.242188 L 76.660156 1.214844 C 76.492188 0.597656 76.15625 0.0390625 75.488281 0.0390625 L 57.332031 0.0390625 C 56.71875 0.0390625 56.328125 0.597656 56.160156 1.214844 L 54.875 6.242188 L 38.171875 6.242188 C 32.753906 6.242188 28.285156 10.710938 28.285156 16.128906 Z M 28.285156 16.128906 " fill-opacity="1" fill-rule="evenodd"/></g><path fill="#ffffff" d="M 36.496094 11.605469 L 43.367188 11.605469 C 44.484375 11.605469 45.378906 12.5 45.378906 13.617188 C 45.378906 14.730469 44.484375 15.679688 43.367188 15.679688 L 36.496094 15.679688 C 35.382812 15.679688 34.433594 14.730469 34.433594 13.617188 C 34.429688 12.5 35.382812 11.605469 36.496094 11.605469 Z M 36.496094 11.605469 " fill-opacity="1" fill-rule="evenodd"/><g transform="matrix(1, 0, 0, 1, 5, 62)"><g clip-path="url(#ce8150321e)"><g fill="#1e1b4b" fill-opacity="1"><g transform="translate(0.144477, 23.730534)"><g><path d="M 18.78125 0.03125 C 17.289062 0.03125 16.546875 -0.132812 16.546875 -0.46875 L 16.015625 -10.515625 L 12.96875 -0.34375 C 12.894531 -0.144531 12.320312 -0.046875 11.25 -0.046875 C 10.1875 -0.046875 9.640625 -0.140625 9.609375 -0.328125 L 6.453125 -10.609375 L 6.109375 -0.625 C 6.085938 -0.375 5.769531 -0.203125 5.15625 -0.109375 C 4.539062 -0.015625 4.023438 0.03125 3.609375 0.03125 C 3.203125 0.03125 2.804688 0.00390625 2.421875 -0.046875 C 1.617188 -0.160156 1.226562 -0.367188 1.25 -0.671875 L 1.828125 -16.953125 C 1.828125 -17.347656 2.84375 -17.546875 4.875 -17.546875 C 5.476562 -17.546875 6.210938 -17.5 7.078125 -17.40625 C 7.953125 -17.3125 8.4375 -17.132812 8.53125 -16.875 L 11.34375 -8.984375 L 13.796875 -16.890625 C 13.941406 -17.328125 15.09375 -17.546875 17.25 -17.546875 C 17.863281 -17.546875 18.597656 -17.5 19.453125 -17.40625 C 20.316406 -17.3125 20.75 -17.148438 20.75 -16.921875 L 21.484375 -0.5 C 21.484375 -0.3125 21.15625 -0.175781 20.5 -0.09375 C 19.851562 -0.0078125 19.28125 0.03125 18.78125 0.03125 Z M 18.78125 0.03125 "/></g></g></g><g fill="#1e1b4b" fill-opacity="1"><g transform="translate(21.972968, 23.730534)"><g><path d="M 13.015625 0.046875 C 11.566406 0.046875 10.78125 -0.1875 10.65625 -0.65625 L 9.84375 -3.875 L 5.859375 -3.875 L 5.125 -0.78125 C 5.03125 -0.257812 4.234375 0 2.734375 0 C 1.929688 0 1.335938 -0.046875 0.953125 -0.140625 C 0.566406 -0.234375 0.375 -0.300781 0.375 -0.34375 L 4.8125 -17.296875 C 4.8125 -17.429688 5.953125 -17.5 8.234375 -17.5 C 10.523438 -17.5 11.671875 -17.429688 11.671875 -17.296875 L 16 -0.328125 C 16 -0.210938 15.613281 -0.117188 14.84375 -0.046875 C 14.070312 0.015625 13.460938 0.046875 13.015625 0.046875 Z M 6.484375 -7.0625 L 9.109375 -7.0625 L 7.984375 -12.234375 L 7.828125 -12.234375 Z M 6.484375 -7.0625 "/></g></g></g><g fill="#1e1b4b" fill-opacity="1"><g transform="translate(37.493144, 23.730534)"><g><path d="M 1.90625 -12.96875 C 1.625 -12.96875 1.421875 -13.351562 1.296875 -14.125 C 1.242188 -14.4375 1.21875 -14.785156 1.21875 -15.171875 C 1.21875 -15.554688 1.265625 -15.957031 1.359375 -16.375 C 1.503906 -17.132812 1.753906 -17.515625 2.109375 -17.515625 L 11.359375 -17.515625 C 12.378906 -17.515625 13.039062 -16.59375 13.34375 -14.75 C 13.40625 -14.34375 13.4375 -14.050781 13.4375 -13.875 L 7.578125 -4.984375 L 12.171875 -4.984375 C 12.179688 -4.984375 12.195312 -4.984375 12.21875 -4.984375 C 12.582031 -4.984375 12.835938 -4.582031 12.984375 -3.78125 C 13.054688 -3.394531 13.09375 -2.992188 13.09375 -2.578125 C 13.09375 -2.160156 13.039062 -1.71875 12.9375 -1.25 C 12.757812 -0.414062 12.476562 0 12.09375 0 L 2.359375 0 C 2.203125 0 1.925781 -0.503906 1.53125 -1.515625 C 1.144531 -2.523438 0.953125 -3.15625 0.953125 -3.40625 C 0.953125 -3.65625 0.976562 -3.8125 1.03125 -3.875 L 6.890625 -12.96875 Z M 1.90625 -12.96875 "/></g></g></g><g fill="#1e1b4b" fill-opacity="1"><g transform="translate(50.710291, 23.730534)"><g><path d="M 9.390625 -10.5625 C 9.703125 -10.5625 9.859375 -9.976562 9.859375 -8.8125 C 9.859375 -8.457031 9.820312 -8.039062 9.75 -7.5625 C 9.675781 -7.09375 9.539062 -6.859375 9.34375 -6.859375 L 6.15625 -6.859375 L 6.15625 -4.359375 L 10.765625 -4.359375 C 11.046875 -4.359375 11.238281 -3.988281 11.34375 -3.25 C 11.394531 -2.9375 11.421875 -2.597656 11.421875 -2.234375 C 11.421875 -1.878906 11.367188 -1.414062 11.265625 -0.84375 C 11.160156 -0.28125 10.992188 0 10.765625 0 L 2.203125 0 C 1.566406 0 1.25 -0.257812 1.25 -0.78125 L 1.25 -16.875 C 1.25 -17.300781 1.441406 -17.515625 1.828125 -17.515625 L 10.78125 -17.515625 C 11.132812 -17.515625 11.3125 -16.773438 11.3125 -15.296875 C 11.3125 -13.828125 11.132812 -13.09375 10.78125 -13.09375 L 6.15625 -13.09375 L 6.15625 -10.5625 Z M 9.390625 -10.5625 "/></g></g></g><g fill="#1e1b4b" fill-opacity="1"><g transform="translate(62.175129, 23.730534)"><g><path d="M 1 -1.484375 L 1 -17.046875 C 1 -17.398438 1.84375 -17.578125 3.53125 -17.578125 C 5.226562 -17.578125 6.078125 -17.398438 6.078125 -17.046875 L 6.078125 -4.78125 L 9.9375 -4.78125 C 10.238281 -4.78125 10.445312 -4.390625 10.5625 -3.609375 C 10.613281 -3.222656 10.640625 -2.828125 10.640625 -2.421875 C 10.640625 -2.023438 10.613281 -1.617188 10.5625 -1.203125 C 10.425781 -0.398438 10.207031 0 9.90625 0 L 2.203125 0 C 1.835938 0 1.546875 -0.148438 1.328125 -0.453125 C 1.109375 -0.753906 1 -1.097656 1 -1.484375 Z M 1 -1.484375 "/></g></g></g><g fill="#1e1b4b" fill-opacity="1"><g transform="translate(72.188056, 23.730534)"><g><path d="M 8.703125 0.25 C 6.359375 0.25 4.445312 -0.515625 2.96875 -2.046875 C 1.488281 -3.585938 0.75 -5.828125 0.75 -8.765625 C 0.75 -11.710938 1.492188 -13.945312 2.984375 -15.46875 C 4.484375 -16.988281 6.410156 -17.75 8.765625 -17.75 C 11.128906 -17.75 13.035156 -17 14.484375 -15.5 C 15.941406 -14.007812 16.671875 -11.75 16.671875 -8.71875 C 16.671875 -5.695312 15.925781 -3.445312 14.4375 -1.96875 C 12.957031 -0.488281 11.046875 0.25 8.703125 0.25 Z M 8.703125 -12.9375 C 7.910156 -12.9375 7.238281 -12.566406 6.6875 -11.828125 C 6.144531 -11.097656 5.875 -10.070312 5.875 -8.75 C 5.875 -7.425781 6.132812 -6.40625 6.65625 -5.6875 C 7.175781 -4.976562 7.859375 -4.625 8.703125 -4.625 C 9.546875 -4.625 10.226562 -4.984375 10.75 -5.703125 C 11.28125 -6.421875 11.546875 -7.445312 11.546875 -8.78125 C 11.546875 -10.113281 11.269531 -11.140625 10.71875 -11.859375 C 10.175781 -12.578125 9.503906 -12.9375 8.703125 -12.9375 Z M 8.703125 -12.9375 "/></g></g></g><g fill="#1e1b4b" fill-opacity="1"><g transform="translate(88.73459, 23.730534)"><g><path d="M 8.703125 0.25 C 6.359375 0.25 4.445312 -0.515625 2.96875 -2.046875 C 1.488281 -3.585938 0.75 -5.828125 0.75 -8.765625 C 0.75 -11.710938 1.492188 -13.945312 2.984375 -15.46875 C 4.484375 -16.988281 6.410156 -17.75 8.765625 -17.75 C 11.128906 -17.75 13.035156 -17 14.484375 -15.5 C 15.941406 -14.007812 16.671875 -11.75 16.671875 -8.71875 C 16.671875 -5.695312 15.925781 -3.445312 14.4375 -1.96875 C 12.957031 -0.488281 11.046875 0.25 8.703125 0.25 Z M 8.703125 -12.9375 C 7.910156 -12.9375 7.238281 -12.566406 6.6875 -11.828125 C 6.144531 -11.097656 5.875 -10.070312 5.875 -8.75 C 5.875 -7.425781 6.132812 -6.40625 6.65625 -5.6875 C 7.175781 -4.976562 7.859375 -4.625 8.703125 -4.625 C 9.546875 -4.625 10.226562 -4.984375 10.75 -5.703125 C 11.28125 -6.421875 11.546875 -7.445312 11.546875 -8.78125 C 11.546875 -10.113281 11.269531 -11.140625 10.71875 -11.859375 C 10.175781 -12.578125 9.503906 -12.9375 8.703125 -12.9375 Z M 8.703125 -12.9375 "/></g></g></g><g fill="#1e1b4b" fill-opacity="1"><g transform="translate(105.281125, 23.730534)"><g><path d="M 8.78125 -0.40625 C 8.78125 -0.0703125 7.953125 0.09375 6.296875 0.09375 C 4.648438 0.09375 3.828125 -0.0703125 3.828125 -0.40625 L 3.828125 -12.96875 L 0.828125 -12.96875 C 0.546875 -12.96875 0.34375 -13.351562 0.21875 -14.125 C 0.175781 -14.488281 0.15625 -14.859375 0.15625 -15.234375 C 0.15625 -15.617188 0.175781 -16 0.21875 -16.375 C 0.34375 -17.132812 0.546875 -17.515625 0.828125 -17.515625 L 11.71875 -17.515625 C 12 -17.515625 12.195312 -17.132812 12.3125 -16.375 C 12.363281 -16 12.390625 -15.617188 12.390625 -15.234375 C 12.390625 -14.859375 12.363281 -14.488281 12.3125 -14.125 C 12.195312 -13.351562 12 -12.96875 11.71875 -12.96875 L 8.78125 -12.96875 Z M 8.78125 -0.40625 "/></g></g></g></g></g><g transform="matrix(1, 0, 0, 1, 5, 87)"><g clip-path="url(#9722189129)"><g clip-path="url(#d3200802e5)"><g fill="#1e1b4b" fill-opacity="1"><g transform="translate(0.144477, 5.205668)"><g><path d="M 0.71875 -0.890625 L 0.71875 -0.046875 C 0.71875 -0.015625 0.703125 0 0.671875 0 L 0.3125 0 C 0.28125 0 0.265625 -0.015625 0.265625 -0.046875 L 0.265625 -2.53125 C 0.265625 -2.5625 0.28125 -2.578125 0.3125 -2.578125 L 1.21875 -2.578125 C 1.53125 -2.578125 1.765625 -2.5 1.921875 -2.34375 C 2.078125 -2.195312 2.15625 -2 2.15625 -1.75 C 2.15625 -1.5 2.078125 -1.289062 1.921875 -1.125 C 1.765625 -0.96875 1.546875 -0.890625 1.265625 -0.890625 Z M 0.71875 -1.3125 L 1.25 -1.3125 C 1.3125 -1.3125 1.375 -1.320312 1.4375 -1.34375 C 1.507812 -1.363281 1.566406 -1.40625 1.609375 -1.46875 C 1.660156 -1.53125 1.6875 -1.625 1.6875 -1.75 C 1.6875 -1.882812 1.644531 -1.984375 1.5625 -2.046875 C 1.476562 -2.117188 1.375 -2.15625 1.25 -2.15625 L 0.71875 -2.15625 Z M 0.71875 -1.3125 "/></g></g></g></g><g fill="#1e1b4b" fill-opacity="1"><g transform="translate(4.186175, 5.205668)"><g><path d="M 1.40625 0.046875 C 1.019531 0.046875 0.722656 -0.0703125 0.515625 -0.3125 C 0.304688 -0.550781 0.203125 -0.875 0.203125 -1.28125 C 0.203125 -1.550781 0.25 -1.785156 0.34375 -1.984375 C 0.4375 -2.191406 0.570312 -2.347656 0.75 -2.453125 C 0.9375 -2.566406 1.15625 -2.625 1.40625 -2.625 C 1.664062 -2.625 1.882812 -2.566406 2.0625 -2.453125 C 2.238281 -2.347656 2.375 -2.191406 2.46875 -1.984375 C 2.5625 -1.785156 2.609375 -1.550781 2.609375 -1.28125 C 2.609375 -0.875 2.503906 -0.550781 2.296875 -0.3125 C 2.085938 -0.0703125 1.789062 0.046875 1.40625 0.046875 Z M 1.40625 -0.390625 C 1.539062 -0.390625 1.660156 -0.414062 1.765625 -0.46875 C 1.878906 -0.519531 1.972656 -0.609375 2.046875 -0.734375 C 2.117188 -0.867188 2.15625 -1.050781 2.15625 -1.28125 C 2.15625 -1.507812 2.117188 -1.691406 2.046875 -1.828125 C 1.972656 -1.960938 1.878906 -2.054688 1.765625 -2.109375 C 1.660156 -2.160156 1.539062 -2.1875 1.40625 -2.1875 C 1.28125 -2.1875 1.160156 -2.160156 1.046875 -2.109375 C 0.929688 -2.054688 0.835938 -1.960938 0.765625 -1.828125 C 0.703125 -1.691406 0.671875 -1.507812 0.671875 -1.28125 C 0.671875 -1.050781 0.703125 -0.867188 0.765625 -0.734375 C 0.835938 -0.609375 0.929688 -0.519531 1.046875 -0.46875 C 1.160156 -0.414062 1.28125 -0.390625 1.40625 -0.390625 Z M 1.40625 -0.390625 "/></g></g></g><g fill="#1e1b4b" fill-opacity="1"><g transform="translate(8.760748, 5.205668)"><g><path d="M 1 -0.578125 L 1.484375 -2.515625 C 1.492188 -2.554688 1.515625 -2.578125 1.546875 -2.578125 L 1.6875 -2.578125 C 1.789062 -2.578125 1.875 -2.554688 1.9375 -2.515625 C 2 -2.472656 2.046875 -2.378906 2.078125 -2.234375 L 2.5 -0.578125 L 2.9375 -2.515625 C 2.957031 -2.554688 2.984375 -2.578125 3.015625 -2.578125 L 3.375 -2.578125 C 3.40625 -2.578125 3.414062 -2.5625 3.40625 -2.53125 L 2.78125 -0.046875 C 2.769531 -0.015625 2.75 0 2.71875 0 L 2.3125 0 C 2.28125 0 2.257812 -0.015625 2.25 -0.046875 L 1.734375 -1.9375 L 1.25 -0.046875 C 1.226562 -0.015625 1.203125 0 1.171875 0 L 0.765625 0 C 0.734375 0 0.710938 -0.015625 0.703125 -0.046875 L 0.109375 -2.515625 C 0.0976562 -2.535156 0.09375 -2.550781 0.09375 -2.5625 C 0.101562 -2.570312 0.117188 -2.578125 0.140625 -2.578125 L 0.234375 -2.578125 C 0.335938 -2.578125 0.421875 -2.554688 0.484375 -2.515625 C 0.554688 -2.472656 0.609375 -2.378906 0.640625 -2.234375 Z M 1 -0.578125 "/></g></g></g><g fill="#1e1b4b" fill-opacity="1"><g transform="translate(14.016477, 5.205668)"><g><path d="M 0.71875 -0.421875 L 1.546875 -0.421875 C 1.722656 -0.421875 1.8125 -0.332031 1.8125 -0.15625 L 1.8125 -0.0625 C 1.8125 -0.0195312 1.796875 0 1.765625 0 L 0.3125 0 C 0.28125 0 0.265625 -0.015625 0.265625 -0.046875 L 0.265625 -2.53125 C 0.265625 -2.5625 0.28125 -2.578125 0.3125 -2.578125 L 1.515625 -2.578125 C 1.691406 -2.578125 1.78125 -2.488281 1.78125 -2.3125 L 1.78125 -2.21875 C 1.78125 -2.175781 1.757812 -2.15625 1.71875 -2.15625 L 0.71875 -2.15625 L 0.71875 -1.5 L 1.421875 -1.5 C 1.597656 -1.5 1.6875 -1.414062 1.6875 -1.25 L 1.6875 -1.140625 C 1.6875 -1.097656 1.664062 -1.078125 1.625 -1.078125 L 0.71875 -1.078125 Z M 0.71875 -0.421875 "/></g></g></g><g fill="#1e1b4b" fill-opacity="1"><g transform="translate(17.715279, 5.205668)"><g><path d="M 0.71875 -0.890625 L 0.71875 -0.046875 C 0.71875 -0.015625 0.703125 0 0.671875 0 L 0.3125 0 C 0.28125 0 0.265625 -0.015625 0.265625 -0.046875 L 0.265625 -2.53125 C 0.265625 -2.5625 0.28125 -2.578125 0.3125 -2.578125 L 1.203125 -2.578125 C 1.523438 -2.578125 1.765625 -2.5 1.921875 -2.34375 C 2.078125 -2.195312 2.15625 -2 2.15625 -1.75 C 2.15625 -1.550781 2.101562 -1.382812 2 -1.25 C 1.90625 -1.113281 1.78125 -1.015625 1.625 -0.953125 L 2.171875 -0.046875 C 2.171875 -0.0351562 2.164062 -0.0234375 2.15625 -0.015625 C 2.15625 -0.00390625 2.148438 0 2.140625 0 L 1.75 0 C 1.695312 0 1.660156 -0.0195312 1.640625 -0.0625 L 1.171875 -0.890625 Z M 0.71875 -1.3125 L 1.25 -1.3125 C 1.363281 -1.3125 1.46875 -1.34375 1.5625 -1.40625 C 1.65625 -1.46875 1.703125 -1.582031 1.703125 -1.75 C 1.703125 -1.882812 1.660156 -1.984375 1.578125 -2.046875 C 1.492188 -2.117188 1.382812 -2.15625 1.25 -2.15625 L 0.71875 -2.15625 Z M 0.71875 -1.3125 "/></g></g></g><g fill="#1e1b4b" fill-opacity="1"><g transform="translate(21.789412, 5.205668)"><g><path d="M 0.3125 0 C 0.28125 0 0.265625 -0.015625 0.265625 -0.046875 L 0.265625 -2.53125 C 0.265625 -2.5625 0.28125 -2.578125 0.3125 -2.578125 L 0.359375 -2.578125 C 0.472656 -2.578125 0.5625 -2.546875 0.625 -2.484375 C 0.6875 -2.421875 0.71875 -2.316406 0.71875 -2.171875 L 0.71875 -0.046875 C 0.71875 -0.015625 0.703125 0 0.671875 0 Z M 0.3125 0 "/></g></g></g><g fill="#1e1b4b" fill-opacity="1"><g transform="translate(24.533672, 5.205668)"><g><path d="M 1.75 -0.828125 L 1.75 -2.53125 C 1.75 -2.5625 1.769531 -2.578125 1.8125 -2.578125 L 1.84375 -2.578125 C 1.957031 -2.578125 2.046875 -2.546875 2.109375 -2.484375 C 2.171875 -2.421875 2.203125 -2.316406 2.203125 -2.171875 L 2.203125 -0.046875 C 2.203125 -0.015625 2.1875 0 2.15625 0 L 1.828125 0 C 1.785156 0 1.75 -0.0195312 1.71875 -0.0625 L 0.71875 -1.703125 L 0.71875 -0.046875 C 0.71875 -0.015625 0.695312 0 0.65625 0 L 0.3125 0 C 0.28125 0 0.265625 -0.015625 0.265625 -0.046875 L 0.265625 -2.53125 C 0.265625 -2.5625 0.28125 -2.578125 0.3125 -2.578125 L 0.453125 -2.578125 C 0.546875 -2.578125 0.617188 -2.554688 0.671875 -2.515625 C 0.722656 -2.484375 0.773438 -2.429688 0.828125 -2.359375 Z M 1.75 -0.828125 "/></g></g></g><g fill="#1e1b4b" fill-opacity="1"><g transform="translate(28.765354, 5.205668)"><g><path d="M 1.96875 -0.546875 L 1.96875 -1 L 1.609375 -1 C 1.429688 -1 1.34375 -1.082031 1.34375 -1.25 L 1.34375 -1.34375 C 1.34375 -1.382812 1.363281 -1.40625 1.40625 -1.40625 L 2.34375 -1.40625 C 2.382812 -1.40625 2.40625 -1.382812 2.40625 -1.34375 L 2.40625 -0.4375 C 2.40625 -0.394531 2.394531 -0.359375 2.375 -0.328125 C 2.363281 -0.304688 2.34375 -0.28125 2.3125 -0.25 C 2.175781 -0.144531 2.039062 -0.0664062 1.90625 -0.015625 C 1.769531 0.0234375 1.617188 0.046875 1.453125 0.046875 C 1.222656 0.046875 1.007812 0 0.8125 -0.09375 C 0.625 -0.1875 0.472656 -0.332031 0.359375 -0.53125 C 0.253906 -0.726562 0.203125 -0.984375 0.203125 -1.296875 C 0.203125 -1.566406 0.253906 -1.800781 0.359375 -2 C 0.460938 -2.207031 0.609375 -2.363281 0.796875 -2.46875 C 0.984375 -2.570312 1.207031 -2.625 1.46875 -2.625 C 1.601562 -2.625 1.71875 -2.613281 1.8125 -2.59375 C 1.914062 -2.570312 2.007812 -2.546875 2.09375 -2.515625 C 2.1875 -2.484375 2.242188 -2.441406 2.265625 -2.390625 C 2.296875 -2.335938 2.300781 -2.265625 2.28125 -2.171875 L 2.265625 -2.0625 C 2.253906 -2.03125 2.234375 -2.015625 2.203125 -2.015625 C 2.191406 -2.015625 2.179688 -2.015625 2.171875 -2.015625 C 2.160156 -2.023438 2.148438 -2.03125 2.140625 -2.03125 C 1.941406 -2.132812 1.726562 -2.1875 1.5 -2.1875 C 1.25 -2.1875 1.050781 -2.113281 0.90625 -1.96875 C 0.757812 -1.820312 0.6875 -1.585938 0.6875 -1.265625 C 0.6875 -0.984375 0.75 -0.765625 0.875 -0.609375 C 1.007812 -0.453125 1.195312 -0.375 1.4375 -0.375 C 1.539062 -0.375 1.632812 -0.382812 1.71875 -0.40625 C 1.800781 -0.4375 1.882812 -0.484375 1.96875 -0.546875 Z M 1.96875 -0.546875 "/></g></g></g><g fill="#1e1b4b" fill-opacity="1"><g transform="translate(33.126776, 5.205668)"><g/></g></g><g fill="#1e1b4b" fill-opacity="1"><g transform="translate(35.611551, 5.205668)"><g><path d="M 0.796875 -2.15625 L 0.109375 -2.15625 C 0.078125 -2.15625 0.0625 -2.171875 0.0625 -2.203125 L 0.0625 -2.53125 C 0.0625 -2.5625 0.078125 -2.578125 0.109375 -2.578125 L 1.734375 -2.578125 C 1.921875 -2.578125 2.015625 -2.488281 2.015625 -2.3125 L 2.015625 -2.21875 C 2.015625 -2.195312 2.007812 -2.179688 2 -2.171875 C 1.988281 -2.160156 1.96875 -2.15625 1.9375 -2.15625 L 1.25 -2.15625 L 1.25 -0.046875 C 1.25 -0.015625 1.234375 0 1.203125 0 L 0.84375 0 C 0.8125 0 0.796875 -0.015625 0.796875 -0.046875 Z M 0.796875 -2.15625 "/></g></g></g><g fill="#1e1b4b" fill-opacity="1"><g transform="translate(39.43083, 5.205668)"><g><path d="M 0.71875 -1.0625 L 0.71875 -0.046875 C 0.71875 -0.015625 0.703125 0 0.671875 0 L 0.3125 0 C 0.28125 0 0.265625 -0.015625 0.265625 -0.046875 L 0.265625 -2.53125 C 0.265625 -2.5625 0.28125 -2.578125 0.3125 -2.578125 L 0.359375 -2.578125 C 0.472656 -2.578125 0.5625 -2.546875 0.625 -2.484375 C 0.6875 -2.421875 0.71875 -2.316406 0.71875 -2.171875 L 0.71875 -1.484375 L 1.734375 -1.484375 L 1.734375 -2.53125 C 1.734375 -2.5625 1.75 -2.578125 1.78125 -2.578125 L 1.828125 -2.578125 C 1.953125 -2.578125 2.039062 -2.546875 2.09375 -2.484375 C 2.15625 -2.421875 2.1875 -2.316406 2.1875 -2.171875 L 2.1875 -0.046875 C 2.1875 -0.015625 2.171875 0 2.140625 0 L 1.78125 0 C 1.75 0 1.734375 -0.015625 1.734375 -0.046875 L 1.734375 -1.0625 Z M 0.71875 -1.0625 "/></g></g></g><g fill="#1e1b4b" fill-opacity="1"><g transform="translate(43.643976, 5.205668)"><g><path d="M 0.71875 -0.421875 L 1.546875 -0.421875 C 1.722656 -0.421875 1.8125 -0.332031 1.8125 -0.15625 L 1.8125 -0.0625 C 1.8125 -0.0195312 1.796875 0 1.765625 0 L 0.3125 0 C 0.28125 0 0.265625 -0.015625 0.265625 -0.046875 L 0.265625 -2.53125 C 0.265625 -2.5625 0.28125 -2.578125 0.3125 -2.578125 L 1.515625 -2.578125 C 1.691406 -2.578125 1.78125 -2.488281 1.78125 -2.3125 L 1.78125 -2.21875 C 1.78125 -2.175781 1.757812 -2.15625 1.71875 -2.15625 L 0.71875 -2.15625 L 0.71875 -1.5 L 1.421875 -1.5 C 1.597656 -1.5 1.6875 -1.414062 1.6875 -1.25 L 1.6875 -1.140625 C 1.6875 -1.097656 1.664062 -1.078125 1.625 -1.078125 L 0.71875 -1.078125 Z M 0.71875 -0.421875 "/></g></g></g><g fill="#1e1b4b" fill-opacity="1"><g transform="translate(47.342777, 5.205668)"><g/></g></g><g fill="#1e1b4b" fill-opacity="1"><g transform="translate(49.827552, 5.205668)"><g><path d="M 1.390625 0.046875 C 1.160156 0.046875 0.953125 -0.00390625 0.765625 -0.109375 C 0.585938 -0.222656 0.445312 -0.378906 0.34375 -0.578125 C 0.25 -0.773438 0.203125 -1.007812 0.203125 -1.28125 C 0.203125 -1.5625 0.253906 -1.800781 0.359375 -2 C 0.460938 -2.195312 0.609375 -2.347656 0.796875 -2.453125 C 0.984375 -2.566406 1.191406 -2.625 1.421875 -2.625 C 1.554688 -2.625 1.671875 -2.613281 1.765625 -2.59375 C 1.859375 -2.570312 1.945312 -2.546875 2.03125 -2.515625 C 2.113281 -2.472656 2.164062 -2.421875 2.1875 -2.359375 C 2.21875 -2.304688 2.222656 -2.242188 2.203125 -2.171875 L 2.1875 -2.046875 C 2.164062 -2.015625 2.148438 -2 2.140625 -2 C 2.117188 -2 2.09375 -2.003906 2.0625 -2.015625 C 1.96875 -2.078125 1.875 -2.117188 1.78125 -2.140625 C 1.6875 -2.171875 1.570312 -2.1875 1.4375 -2.1875 C 1.207031 -2.1875 1.019531 -2.109375 0.875 -1.953125 C 0.738281 -1.804688 0.671875 -1.582031 0.671875 -1.28125 C 0.671875 -0.976562 0.742188 -0.753906 0.890625 -0.609375 C 1.035156 -0.460938 1.222656 -0.390625 1.453125 -0.390625 C 1.617188 -0.390625 1.757812 -0.421875 1.875 -0.484375 C 1.988281 -0.546875 2.078125 -0.613281 2.140625 -0.6875 C 2.148438 -0.707031 2.160156 -0.71875 2.171875 -0.71875 C 2.179688 -0.726562 2.195312 -0.734375 2.21875 -0.734375 C 2.257812 -0.734375 2.28125 -0.695312 2.28125 -0.625 C 2.28125 -0.5625 2.265625 -0.492188 2.234375 -0.421875 C 2.203125 -0.347656 2.148438 -0.273438 2.078125 -0.203125 C 2.015625 -0.128906 1.925781 -0.0664062 1.8125 -0.015625 C 1.695312 0.0234375 1.554688 0.046875 1.390625 0.046875 Z M 1.390625 0.046875 "/></g></g></g><g fill="#1e1b4b" fill-opacity="1"><g transform="translate(53.957292, 5.205668)"><g><path d="M 0.71875 -0.890625 L 0.71875 -0.046875 C 0.71875 -0.015625 0.703125 0 0.671875 0 L 0.3125 0 C 0.28125 0 0.265625 -0.015625 0.265625 -0.046875 L 0.265625 -2.53125 C 0.265625 -2.5625 0.28125 -2.578125 0.3125 -2.578125 L 1.203125 -2.578125 C 1.523438 -2.578125 1.765625 -2.5 1.921875 -2.34375 C 2.078125 -2.195312 2.15625 -2 2.15625 -1.75 C 2.15625 -1.550781 2.101562 -1.382812 2 -1.25 C 1.90625 -1.113281 1.78125 -1.015625 1.625 -0.953125 L 2.171875 -0.046875 C 2.171875 -0.0351562 2.164062 -0.0234375 2.15625 -0.015625 C 2.15625 -0.00390625 2.148438 0 2.140625 0 L 1.75 0 C 1.695312 0 1.660156 -0.0195312 1.640625 -0.0625 L 1.171875 -0.890625 Z M 0.71875 -1.3125 L 1.25 -1.3125 C 1.363281 -1.3125 1.46875 -1.34375 1.5625 -1.40625 C 1.65625 -1.46875 1.703125 -1.582031 1.703125 -1.75 C 1.703125 -1.882812 1.660156 -1.984375 1.578125 -2.046875 C 1.492188 -2.117188 1.382812 -2.15625 1.25 -2.15625 L 0.71875 -2.15625 Z M 0.71875 -1.3125 "/></g></g></g><g fill="#1e1b4b" fill-opacity="1"><g transform="translate(58.031425, 5.205668)"><g><path d="M 0.71875 -0.421875 L 1.546875 -0.421875 C 1.722656 -0.421875 1.8125 -0.332031 1.8125 -0.15625 L 1.8125 -0.0625 C 1.8125 -0.0195312 1.796875 0 1.765625 0 L 0.3125 0 C 0.28125 0 0.265625 -0.015625 0.265625 -0.046875 L 0.265625 -2.53125 C 0.265625 -2.5625 0.28125 -2.578125 0.3125 -2.578125 L 1.515625 -2.578125 C 1.691406 -2.578125 1.78125 -2.488281 1.78125 -2.3125 L 1.78125 -2.21875 C 1.78125 -2.175781 1.757812 -2.15625 1.71875 -2.15625 L 0.71875 -2.15625 L 0.71875 -1.5 L 1.421875 -1.5 C 1.597656 -1.5 1.6875 -1.414062 1.6875 -1.25 L 1.6875 -1.140625 C 1.6875 -1.097656 1.664062 -1.078125 1.625 -1.078125 L 0.71875 -1.078125 Z M 0.71875 -0.421875 "/></g></g></g><g fill="#1e1b4b" fill-opacity="1"><g transform="translate(61.731023, 5.205668)"><g><path d="M 0.71875 -0.65625 L 0.5 -0.0625 C 0.488281 -0.0195312 0.46875 0 0.4375 0 L 0.078125 0 C 0.0664062 0 0.0546875 -0.00390625 0.046875 -0.015625 C 0.0351562 -0.0234375 0.0351562 -0.0351562 0.046875 -0.046875 L 0.9375 -2.53125 C 0.945312 -2.5625 0.96875 -2.578125 1 -2.578125 L 1.15625 -2.578125 C 1.257812 -2.578125 1.34375 -2.550781 1.40625 -2.5 C 1.46875 -2.457031 1.523438 -2.367188 1.578125 -2.234375 L 2.375 -0.046875 C 2.375 -0.0351562 2.367188 -0.0234375 2.359375 -0.015625 C 2.359375 -0.00390625 2.351562 0 2.34375 0 L 1.96875 0 C 1.925781 0 1.898438 -0.0195312 1.890625 -0.0625 L 1.671875 -0.65625 Z M 0.859375 -1.03125 L 1.546875 -1.03125 L 1.203125 -2.03125 Z M 0.859375 -1.03125 "/></g></g></g><g fill="#1e1b4b" fill-opacity="1"><g transform="translate(65.907098, 5.205668)"><g><path d="M 0.796875 -2.15625 L 0.109375 -2.15625 C 0.078125 -2.15625 0.0625 -2.171875 0.0625 -2.203125 L 0.0625 -2.53125 C 0.0625 -2.5625 0.078125 -2.578125 0.109375 -2.578125 L 1.734375 -2.578125 C 1.921875 -2.578125 2.015625 -2.488281 2.015625 -2.3125 L 2.015625 -2.21875 C 2.015625 -2.195312 2.007812 -2.179688 2 -2.171875 C 1.988281 -2.160156 1.96875 -2.15625 1.9375 -2.15625 L 1.25 -2.15625 L 1.25 -0.046875 C 1.25 -0.015625 1.234375 0 1.203125 0 L 0.84375 0 C 0.8125 0 0.796875 -0.015625 0.796875 -0.046875 Z M 0.796875 -2.15625 "/></g></g></g><g fill="#1e1b4b" fill-opacity="1"><g transform="translate(69.726376, 5.205668)"><g><path d="M 0.3125 0 C 0.28125 0 0.265625 -0.015625 0.265625 -0.046875 L 0.265625 -2.53125 C 0.265625 -2.5625 0.28125 -2.578125 0.3125 -2.578125 L 0.359375 -2.578125 C 0.472656 -2.578125 0.5625 -2.546875 0.625 -2.484375 C 0.6875 -2.421875 0.71875 -2.316406 0.71875 -2.171875 L 0.71875 -0.046875 C 0.71875 -0.015625 0.703125 0 0.671875 0 Z M 0.3125 0 "/></g></g></g><g fill="#1e1b4b" fill-opacity="1"><g transform="translate(72.470637, 5.205668)"><g><path d="M 1.171875 -0.53125 L 1.8125 -2.515625 C 1.820312 -2.554688 1.847656 -2.578125 1.890625 -2.578125 L 2.234375 -2.578125 C 2.265625 -2.578125 2.273438 -2.5625 2.265625 -2.53125 L 1.4375 -0.046875 C 1.425781 -0.015625 1.40625 0 1.375 0 L 0.953125 0 C 0.910156 0 0.882812 -0.015625 0.875 -0.046875 L 0.046875 -2.515625 C 0.046875 -2.535156 0.046875 -2.550781 0.046875 -2.5625 C 0.0546875 -2.570312 0.0664062 -2.578125 0.078125 -2.578125 L 0.234375 -2.578125 C 0.335938 -2.578125 0.421875 -2.554688 0.484375 -2.515625 C 0.546875 -2.472656 0.597656 -2.378906 0.640625 -2.234375 Z M 1.171875 -0.53125 "/></g></g></g><g fill="#1e1b4b" fill-opacity="1"><g transform="translate(76.535502, 5.205668)"><g><path d="M 0.71875 -0.421875 L 1.546875 -0.421875 C 1.722656 -0.421875 1.8125 -0.332031 1.8125 -0.15625 L 1.8125 -0.0625 C 1.8125 -0.0195312 1.796875 0 1.765625 0 L 0.3125 0 C 0.28125 0 0.265625 -0.015625 0.265625 -0.046875 L 0.265625 -2.53125 C 0.265625 -2.5625 0.28125 -2.578125 0.3125 -2.578125 L 1.515625 -2.578125 C 1.691406 -2.578125 1.78125 -2.488281 1.78125 -2.3125 L 1.78125 -2.21875 C 1.78125 -2.175781 1.757812 -2.15625 1.71875 -2.15625 L 0.71875 -2.15625 L 0.71875 -1.5 L 1.421875 -1.5 C 1.597656 -1.5 1.6875 -1.414062 1.6875 -1.25 L 1.6875 -1.140625 C 1.6875 -1.097656 1.664062 -1.078125 1.625 -1.078125 L 0.71875 -1.078125 Z M 0.71875 -0.421875 "/></g></g></g><g fill="#1e1b4b" fill-opacity="1"><g transform="translate(80.234303, 5.205668)"><g/></g></g><g fill="#1e1b4b" fill-opacity="1"><g transform="translate(82.719078, 5.205668)"><g><path d="M 0.71875 -0.421875 L 1.546875 -0.421875 C 1.722656 -0.421875 1.8125 -0.332031 1.8125 -0.15625 L 1.8125 -0.0625 C 1.8125 -0.0195312 1.796875 0 1.765625 0 L 0.3125 0 C 0.28125 0 0.265625 -0.015625 0.265625 -0.046875 L 0.265625 -2.53125 C 0.265625 -2.5625 0.28125 -2.578125 0.3125 -2.578125 L 1.515625 -2.578125 C 1.691406 -2.578125 1.78125 -2.488281 1.78125 -2.3125 L 1.78125 -2.21875 C 1.78125 -2.175781 1.757812 -2.15625 1.71875 -2.15625 L 0.71875 -2.15625 L 0.71875 -1.5 L 1.421875 -1.5 C 1.597656 -1.5 1.6875 -1.414062 1.6875 -1.25 L 1.6875 -1.140625 C 1.6875 -1.097656 1.664062 -1.078125 1.625 -1.078125 L 0.71875 -1.078125 Z M 0.71875 -0.421875 "/></g></g></g><g fill="#1e1b4b" fill-opacity="1"><g transform="translate(86.417879, 5.205668)"><g><path d="M 1.390625 0.046875 C 1.160156 0.046875 0.953125 -0.00390625 0.765625 -0.109375 C 0.585938 -0.222656 0.445312 -0.378906 0.34375 -0.578125 C 0.25 -0.773438 0.203125 -1.007812 0.203125 -1.28125 C 0.203125 -1.5625 0.253906 -1.800781 0.359375 -2 C 0.460938 -2.195312 0.609375 -2.347656 0.796875 -2.453125 C 0.984375 -2.566406 1.191406 -2.625 1.421875 -2.625 C 1.554688 -2.625 1.671875 -2.613281 1.765625 -2.59375 C 1.859375 -2.570312 1.945312 -2.546875 2.03125 -2.515625 C 2.113281 -2.472656 2.164062 -2.421875 2.1875 -2.359375 C 2.21875 -2.304688 2.222656 -2.242188 2.203125 -2.171875 L 2.1875 -2.046875 C 2.164062 -2.015625 2.148438 -2 2.140625 -2 C 2.117188 -2 2.09375 -2.003906 2.0625 -2.015625 C 1.96875 -2.078125 1.875 -2.117188 1.78125 -2.140625 C 1.6875 -2.171875 1.570312 -2.1875 1.4375 -2.1875 C 1.207031 -2.1875 1.019531 -2.109375 0.875 -1.953125 C 0.738281 -1.804688 0.671875 -1.582031 0.671875 -1.28125 C 0.671875 -0.976562 0.742188 -0.753906 0.890625 -0.609375 C 1.035156 -0.460938 1.222656 -0.390625 1.453125 -0.390625 C 1.617188 -0.390625 1.757812 -0.421875 1.875 -0.484375 C 1.988281 -0.546875 2.078125 -0.613281 2.140625 -0.6875 C 2.148438 -0.707031 2.160156 -0.71875 2.171875 -0.71875 C 2.179688 -0.726562 2.195312 -0.734375 2.21875 -0.734375 C 2.257812 -0.734375 2.28125 -0.695312 2.28125 -0.625 C 2.28125 -0.5625 2.265625 -0.492188 2.234375 -0.421875 C 2.203125 -0.347656 2.148438 -0.273438 2.078125 -0.203125 C 2.015625 -0.128906 1.925781 -0.0664062 1.8125 -0.015625 C 1.695312 0.0234375 1.554688 0.046875 1.390625 0.046875 Z M 1.390625 0.046875 "/></g></g></g><g fill="#1e1b4b" fill-opacity="1"><g transform="translate(90.54762, 5.205668)"><g><path d="M 1.40625 0.046875 C 1.019531 0.046875 0.722656 -0.0703125 0.515625 -0.3125 C 0.304688 -0.550781 0.203125 -0.875 0.203125 -1.28125 C 0.203125 -1.550781 0.25 -1.785156 0.34375 -1.984375 C 0.4375 -2.191406 0.570312 -2.347656 0.75 -2.453125 C 0.9375 -2.566406 1.15625 -2.625 1.40625 -2.625 C 1.664062 -2.625 1.882812 -2.566406 2.0625 -2.453125 C 2.238281 -2.347656 2.375 -2.191406 2.46875 -1.984375 C 2.5625 -1.785156 2.609375 -1.550781 2.609375 -1.28125 C 2.609375 -0.875 2.503906 -0.550781 2.296875 -0.3125 C 2.085938 -0.0703125 1.789062 0.046875 1.40625 0.046875 Z M 1.40625 -0.390625 C 1.539062 -0.390625 1.660156 -0.414062 1.765625 -0.46875 C 1.878906 -0.519531 1.972656 -0.609375 2.046875 -0.734375 C 2.117188 -0.867188 2.15625 -1.050781 2.15625 -1.28125 C 2.15625 -1.507812 2.117188 -1.691406 2.046875 -1.828125 C 1.972656 -1.960938 1.878906 -2.054688 1.765625 -2.109375 C 1.660156 -2.160156 1.539062 -2.1875 1.40625 -2.1875 C 1.28125 -2.1875 1.160156 -2.160156 1.046875 -2.109375 C 0.929688 -2.054688 0.835938 -1.960938 0.765625 -1.828125 C 0.703125 -1.691406 0.671875 -1.507812 0.671875 -1.28125 C 0.671875 -1.050781 0.703125 -0.867188 0.765625 -0.734375 C 0.835938 -0.609375 0.929688 -0.519531 1.046875 -0.46875 C 1.160156 -0.414062 1.28125 -0.390625 1.40625 -0.390625 Z M 1.40625 -0.390625 "/></g></g></g><g fill="#1e1b4b" fill-opacity="1"><g transform="translate(95.122193, 5.205668)"><g><path d="M 1.75 -0.828125 L 1.75 -2.53125 C 1.75 -2.5625 1.769531 -2.578125 1.8125 -2.578125 L 1.84375 -2.578125 C 1.957031 -2.578125 2.046875 -2.546875 2.109375 -2.484375 C 2.171875 -2.421875 2.203125 -2.316406 2.203125 -2.171875 L 2.203125 -0.046875 C 2.203125 -0.015625 2.1875 0 2.15625 0 L 1.828125 0 C 1.785156 0 1.75 -0.0195312 1.71875 -0.0625 L 0.71875 -1.703125 L 0.71875 -0.046875 C 0.71875 -0.015625 0.695312 0 0.65625 0 L 0.3125 0 C 0.28125 0 0.265625 -0.015625 0.265625 -0.046875 L 0.265625 -2.53125 C 0.265625 -2.5625 0.28125 -2.578125 0.3125 -2.578125 L 0.453125 -2.578125 C 0.546875 -2.578125 0.617188 -2.554688 0.671875 -2.515625 C 0.722656 -2.484375 0.773438 -2.429688 0.828125 -2.359375 Z M 1.75 -0.828125 "/></g></g></g><g fill="#1e1b4b" fill-opacity="1"><g transform="translate(99.353875, 5.205668)"><g><path d="M 1.40625 0.046875 C 1.019531 0.046875 0.722656 -0.0703125 0.515625 -0.3125 C 0.304688 -0.550781 0.203125 -0.875 0.203125 -1.28125 C 0.203125 -1.550781 0.25 -1.785156 0.34375 -1.984375 C 0.4375 -2.191406 0.570312 -2.347656 0.75 -2.453125 C 0.9375 -2.566406 1.15625 -2.625 1.40625 -2.625 C 1.664062 -2.625 1.882812 -2.566406 2.0625 -2.453125 C 2.238281 -2.347656 2.375 -2.191406 2.46875 -1.984375 C 2.5625 -1.785156 2.609375 -1.550781 2.609375 -1.28125 C 2.609375 -0.875 2.503906 -0.550781 2.296875 -0.3125 C 2.085938 -0.0703125 1.789062 0.046875 1.40625 0.046875 Z M 1.40625 -0.390625 C 1.539062 -0.390625 1.660156 -0.414062 1.765625 -0.46875 C 1.878906 -0.519531 1.972656 -0.609375 2.046875 -0.734375 C 2.117188 -0.867188 2.15625 -1.050781 2.15625 -1.28125 C 2.15625 -1.507812 2.117188 -1.691406 2.046875 -1.828125 C 1.972656 -1.960938 1.878906 -2.054688 1.765625 -2.109375 C 1.660156 -2.160156 1.539062 -2.1875 1.40625 -2.1875 C 1.28125 -2.1875 1.160156 -2.160156 1.046875 -2.109375 C 0.929688 -2.054688 0.835938 -1.960938 0.765625 -1.828125 C 0.703125 -1.691406 0.671875 -1.507812 0.671875 -1.28125 C 0.671875 -1.050781 0.703125 -0.867188 0.765625 -0.734375 C 0.835938 -0.609375 0.929688 -0.519531 1.046875 -0.46875 C 1.160156 -0.414062 1.28125 -0.390625 1.40625 -0.390625 Z M 1.40625 -0.390625 "/></g></g></g><g fill="#1e1b4b" fill-opacity="1"><g transform="translate(103.928448, 5.205668)"><g><path d="M 1.484375 -0.671875 L 2.03125 -2.53125 C 2.039062 -2.539062 2.046875 -2.550781 2.046875 -2.5625 C 2.054688 -2.570312 2.070312 -2.578125 2.09375 -2.578125 L 2.359375 -2.578125 C 2.441406 -2.578125 2.515625 -2.550781 2.578125 -2.5 C 2.640625 -2.445312 2.671875 -2.375 2.671875 -2.28125 L 2.796875 -0.046875 C 2.796875 -0.015625 2.785156 0 2.765625 0 L 2.40625 0 C 2.375 0 2.359375 -0.015625 2.359375 -0.046875 L 2.25 -1.859375 L 1.71875 -0.046875 C 1.707031 -0.015625 1.6875 0 1.65625 0 L 1.3125 0 C 1.289062 0 1.269531 -0.015625 1.25 -0.046875 L 0.734375 -1.84375 L 0.625 -0.046875 C 0.625 -0.015625 0.613281 0 0.59375 0 L 0.234375 0 C 0.203125 0 0.1875 -0.015625 0.1875 -0.046875 L 0.328125 -2.53125 C 0.328125 -2.5625 0.34375 -2.578125 0.375 -2.578125 L 0.640625 -2.578125 C 0.734375 -2.578125 0.804688 -2.5625 0.859375 -2.53125 C 0.921875 -2.5 0.96875 -2.441406 1 -2.359375 Z M 1.484375 -0.671875 "/></g></g></g><g fill="#1e1b4b" fill-opacity="1"><g transform="translate(108.669832, 5.205668)"><g><path d="M 0.859375 -0.96875 L 0.015625 -2.53125 C 0.015625 -2.539062 0.015625 -2.550781 0.015625 -2.5625 C 0.0234375 -2.570312 0.0351562 -2.578125 0.046875 -2.578125 L 0.234375 -2.578125 C 0.328125 -2.578125 0.40625 -2.554688 0.46875 -2.515625 C 0.53125 -2.484375 0.585938 -2.414062 0.640625 -2.3125 L 1.109375 -1.421875 L 1.671875 -2.515625 C 1.691406 -2.554688 1.722656 -2.578125 1.765625 -2.578125 L 2.109375 -2.578125 C 2.128906 -2.578125 2.140625 -2.570312 2.140625 -2.5625 C 2.148438 -2.550781 2.15625 -2.535156 2.15625 -2.515625 L 1.3125 -0.953125 L 1.3125 -0.046875 C 1.3125 -0.015625 1.289062 0 1.25 0 L 0.90625 0 C 0.875 0 0.859375 -0.015625 0.859375 -0.046875 Z M 0.859375 -0.96875 "/></g></g></g><g fill="#1e1b4b" fill-opacity="1"><g transform="translate(112.591052, 5.205668)"><g><path d="M 0.453125 -0.515625 C 0.523438 -0.515625 0.585938 -0.484375 0.640625 -0.421875 C 0.703125 -0.367188 0.734375 -0.304688 0.734375 -0.234375 C 0.734375 -0.148438 0.703125 -0.078125 0.640625 -0.015625 C 0.585938 0.0351562 0.523438 0.0625 0.453125 0.0625 C 0.367188 0.0625 0.296875 0.0351562 0.234375 -0.015625 C 0.179688 -0.078125 0.15625 -0.148438 0.15625 -0.234375 C 0.15625 -0.304688 0.179688 -0.367188 0.234375 -0.421875 C 0.296875 -0.484375 0.367188 -0.515625 0.453125 -0.515625 Z M 0.453125 -0.515625 "/></g></g></g></g></g></svg>