<svg xmlns="http://www.w3.org/2000/svg" xmlns:xlink="http://www.w3.org/1999/xlink" width="477" zoomAndPan="magnify" viewBox="0 0 357.75 86.249997" height="115" preserveAspectRatio="xMidYMid meet" version="1.0"><defs><g/><clipPath id="1d7899ed4a"><path d="M 1.417969 47 L 77.257812 47 L 77.257812 77 L 1.417969 77 Z M 1.417969 47 " clip-rule="nonzero"/></clipPath><clipPath id="3e52a1f823"><path d="M 1.417969 16.265625 L 77.257812 16.265625 L 77.257812 53 L 1.417969 53 Z M 1.417969 16.265625 " clip-rule="nonzero"/></clipPath><clipPath id="1b765a7365"><rect x="0" width="253" y="0" height="62"/></clipPath></defs><path fill="#e5e7eb" d="M 39.511719 34.332031 C 47.996094 34.332031 54.859375 41.25 54.859375 49.675781 C 54.859375 58.160156 47.996094 65.078125 39.511719 65.078125 C 31.03125 65.078125 24.167969 58.15625 24.167969 49.675781 C 24.167969 41.25 31.03125 34.332031 39.511719 34.332031 Z M 39.511719 34.332031 " fill-opacity="1" fill-rule="evenodd"/><path fill="#ffffff" d="M 39.511719 38.515625 C 40.015625 38.515625 40.515625 38.515625 41.019531 38.628906 C 40.238281 39.632812 39.734375 40.914062 39.734375 42.308594 C 39.734375 45.65625 42.46875 48.394531 45.816406 48.394531 C 47.546875 48.394531 49.109375 47.667969 50.226562 46.496094 C 50.5625 47.5 50.671875 48.617188 50.671875 49.675781 C 50.671875 55.867188 45.707031 60.890625 39.511719 60.890625 C 33.320312 60.890625 28.296875 55.867188 28.296875 49.675781 C 28.296875 43.539062 33.320312 38.515625 39.511719 38.515625 Z M 33.652344 44.320312 C 34.992188 44.320312 36.109375 45.433594 36.109375 46.773438 C 36.109375 48.117188 34.992188 49.230469 33.652344 49.230469 C 32.3125 49.230469 31.253906 48.117188 31.253906 46.773438 C 31.253906 45.433594 32.3125 44.320312 33.652344 44.320312 Z M 33.652344 44.320312 " fill-opacity="1" fill-rule="evenodd"/><g clip-path="url(#1d7899ed4a)"><path fill="#e5e7eb" d="M 1.402344 61.28125 L 1.402344 67.03125 C 1.402344 72.441406 5.863281 76.90625 11.277344 76.90625 L 67.691406 76.90625 C 73.160156 76.90625 77.625 72.441406 77.625 67.03125 L 77.625 47.332031 L 50.671875 65.859375 C 47.492188 68.089844 43.640625 69.375 39.511719 69.375 C 34.097656 69.375 29.1875 67.195312 25.671875 63.683594 C 18.753906 56.875 9.882812 55.8125 1.402344 61.28125 Z M 1.402344 61.28125 " fill-opacity="1" fill-rule="evenodd"/></g><g clip-path="url(#3e52a1f823)"><path fill="#e5e7eb" d="M 1.402344 32.378906 L 1.402344 52.074219 L 27.960938 33.773438 C 28.242188 33.550781 28.464844 33.382812 28.6875 33.269531 C 31.8125 31.207031 35.496094 30.035156 39.511719 30.035156 C 45.875 30.035156 51.511719 33.050781 55.136719 37.734375 C 61.667969 46.273438 69.8125 46.664062 77.625 38.015625 L 77.625 32.378906 C 77.625 26.964844 73.160156 22.5 67.691406 22.5 L 51.0625 22.5 L 49.726562 17.480469 C 49.558594 16.863281 49.222656 16.308594 48.554688 16.308594 L 30.417969 16.308594 C 29.804688 16.308594 29.414062 16.863281 29.246094 17.480469 L 27.960938 22.5 L 11.277344 22.5 C 5.863281 22.5 1.402344 26.964844 1.402344 32.378906 Z M 1.402344 32.378906 " fill-opacity="1" fill-rule="evenodd"/></g><path fill="#ffffff" d="M 9.605469 27.859375 L 16.46875 27.859375 C 17.582031 27.859375 18.476562 28.75 18.476562 29.867188 C 18.476562 30.984375 17.582031 31.929688 16.46875 31.929688 L 9.605469 31.929688 C 8.488281 31.929688 7.539062 30.984375 7.539062 29.867188 C 7.539062 28.75 8.488281 27.859375 9.605469 27.859375 Z M 9.605469 27.859375 " fill-opacity="1" fill-rule="evenodd"/><g transform="matrix(1, 0, 0, 1, 82, 11)"><g clip-path="url(#1b765a7365)"><g fill="#e5e7eb" fill-opacity="1"><g transform="translate(0.876321, 49.452477)"><g><path d="M 40.109375 0.046875 C 36.941406 0.046875 35.359375 -0.304688 35.359375 -1.015625 L 34.234375 -22.46875 L 27.703125 -0.75 C 27.554688 -0.320312 26.34375 -0.109375 24.0625 -0.109375 C 21.78125 -0.109375 20.601562 -0.300781 20.53125 -0.6875 L 13.796875 -22.671875 L 13.046875 -1.34375 C 13.015625 -0.800781 12.335938 -0.429688 11.015625 -0.234375 C 9.691406 -0.046875 8.59375 0.046875 7.71875 0.046875 C 6.851562 0.046875 6.007812 -0.00390625 5.1875 -0.109375 C 3.476562 -0.359375 2.640625 -0.800781 2.671875 -1.4375 L 3.90625 -36.203125 C 3.90625 -37.066406 6.078125 -37.5 10.421875 -37.5 C 11.710938 -37.5 13.285156 -37.398438 15.140625 -37.203125 C 16.992188 -37.003906 18.023438 -36.617188 18.234375 -36.046875 L 24.234375 -19.203125 L 29.46875 -36.109375 C 29.789062 -37.035156 32.25 -37.5 36.84375 -37.5 C 38.164062 -37.5 39.742188 -37.398438 41.578125 -37.203125 C 43.421875 -37.003906 44.34375 -36.65625 44.34375 -36.15625 L 45.890625 -1.0625 C 45.890625 -0.675781 45.191406 -0.394531 43.796875 -0.21875 C 42.410156 -0.0390625 41.179688 0.046875 40.109375 0.046875 Z M 40.109375 0.046875 "/></g></g></g><g fill="#e5e7eb" fill-opacity="1"><g transform="translate(47.505615, 49.452477)"><g><path d="M 27.8125 0.109375 C 24.707031 0.109375 23.03125 -0.390625 22.78125 -1.390625 L 21.015625 -8.296875 L 12.515625 -8.296875 L 10.96875 -1.65625 C 10.75 -0.550781 9.035156 0 5.828125 0 C 4.117188 0 2.851562 -0.0976562 2.03125 -0.296875 C 1.207031 -0.492188 0.796875 -0.644531 0.796875 -0.75 L 10.265625 -36.953125 C 10.265625 -37.242188 12.707031 -37.390625 17.59375 -37.390625 C 22.476562 -37.390625 24.921875 -37.242188 24.921875 -36.953125 L 34.171875 -0.6875 C 34.171875 -0.445312 33.347656 -0.253906 31.703125 -0.109375 C 30.066406 0.0351562 28.769531 0.109375 27.8125 0.109375 Z M 13.859375 -15.078125 L 19.46875 -15.078125 L 17.0625 -26.15625 L 16.734375 -26.15625 Z M 13.859375 -15.078125 "/></g></g></g><g fill="#e5e7eb" fill-opacity="1"><g transform="translate(80.659298, 49.452477)"><g><path d="M 4.0625 -27.703125 C 3.457031 -27.703125 3.03125 -28.523438 2.78125 -30.171875 C 2.675781 -30.847656 2.625 -31.59375 2.625 -32.40625 C 2.625 -33.226562 2.710938 -34.085938 2.890625 -34.984375 C 3.210938 -36.617188 3.75 -37.4375 4.5 -37.4375 L 24.28125 -37.4375 C 26.457031 -37.4375 27.863281 -35.457031 28.5 -31.5 C 28.644531 -30.644531 28.71875 -30.019531 28.71875 -29.625 L 16.203125 -10.640625 L 26 -10.640625 C 26.03125 -10.640625 26.0625 -10.640625 26.09375 -10.640625 C 26.882812 -10.640625 27.441406 -9.785156 27.765625 -8.078125 C 27.898438 -7.253906 27.96875 -6.394531 27.96875 -5.5 C 27.96875 -4.613281 27.863281 -3.671875 27.65625 -2.671875 C 27.257812 -0.890625 26.648438 0 25.828125 0 L 5.03125 0 C 4.707031 0 4.125 -1.078125 3.28125 -3.234375 C 2.445312 -5.390625 2.03125 -6.734375 2.03125 -7.265625 C 2.03125 -7.804688 2.082031 -8.148438 2.1875 -8.296875 L 14.703125 -27.703125 Z M 4.0625 -27.703125 "/></g></g></g><g fill="#e5e7eb" fill-opacity="1"><g transform="translate(108.893325, 49.452477)"><g><path d="M 20.0625 -22.578125 C 20.738281 -22.578125 21.078125 -21.328125 21.078125 -18.828125 C 21.078125 -18.078125 20.992188 -17.191406 20.828125 -16.171875 C 20.671875 -15.160156 20.378906 -14.65625 19.953125 -14.65625 L 13.15625 -14.65625 L 13.15625 -9.3125 L 23 -9.3125 C 23.601562 -9.3125 24.015625 -8.523438 24.234375 -6.953125 C 24.335938 -6.273438 24.390625 -5.550781 24.390625 -4.78125 C 24.390625 -4.019531 24.28125 -3.03125 24.0625 -1.8125 C 23.851562 -0.601562 23.5 0 23 0 L 4.703125 0 C 3.347656 0 2.671875 -0.550781 2.671875 -1.65625 L 2.671875 -36.046875 C 2.671875 -36.972656 3.082031 -37.4375 3.90625 -37.4375 L 23.046875 -37.4375 C 23.796875 -37.4375 24.171875 -35.859375 24.171875 -32.703125 C 24.171875 -29.546875 23.796875 -27.96875 23.046875 -27.96875 L 13.15625 -27.96875 L 13.15625 -22.578125 Z M 20.0625 -22.578125 "/></g></g></g><g fill="#e5e7eb" fill-opacity="1"><g transform="translate(133.38413, 49.452477)"><g><path d="M 2.140625 -3.15625 L 2.140625 -36.421875 C 2.140625 -37.171875 3.945312 -37.546875 7.5625 -37.546875 C 11.1875 -37.546875 13 -37.171875 13 -36.421875 L 13 -10.21875 L 21.234375 -10.21875 C 21.878906 -10.21875 22.328125 -9.378906 22.578125 -7.703125 C 22.679688 -6.878906 22.734375 -6.039062 22.734375 -5.1875 C 22.734375 -4.332031 22.679688 -3.457031 22.578125 -2.5625 C 22.285156 -0.851562 21.820312 0 21.1875 0 L 4.703125 0 C 3.921875 0 3.296875 -0.316406 2.828125 -0.953125 C 2.367188 -1.597656 2.140625 -2.332031 2.140625 -3.15625 Z M 2.140625 -3.15625 "/></g></g></g><g fill="#e5e7eb" fill-opacity="1"><g transform="translate(154.773411, 49.452477)"><g><path d="M 18.578125 0.53125 C 13.578125 0.53125 9.5 -1.109375 6.34375 -4.390625 C 3.1875 -7.671875 1.609375 -12.457031 1.609375 -18.75 C 1.609375 -25.039062 3.203125 -29.804688 6.390625 -33.046875 C 9.578125 -36.296875 13.691406 -37.921875 18.734375 -37.921875 C 23.785156 -37.921875 27.863281 -36.320312 30.96875 -33.125 C 34.070312 -29.9375 35.625 -25.109375 35.625 -18.640625 C 35.625 -12.171875 34.035156 -7.359375 30.859375 -4.203125 C 27.679688 -1.046875 23.585938 0.53125 18.578125 0.53125 Z M 18.609375 -27.65625 C 16.898438 -27.65625 15.460938 -26.867188 14.296875 -25.296875 C 13.140625 -23.722656 12.5625 -21.519531 12.5625 -18.6875 C 12.5625 -15.851562 13.113281 -13.675781 14.21875 -12.15625 C 15.332031 -10.644531 16.785156 -9.890625 18.578125 -9.890625 C 20.378906 -9.890625 21.84375 -10.65625 22.96875 -12.1875 C 24.09375 -13.726562 24.65625 -15.921875 24.65625 -18.765625 C 24.65625 -21.617188 24.078125 -23.8125 22.921875 -25.34375 C 21.765625 -26.882812 20.328125 -27.65625 18.609375 -27.65625 Z M 18.609375 -27.65625 "/></g></g></g><g fill="#e5e7eb" fill-opacity="1"><g transform="translate(190.119565, 49.452477)"><g><path d="M 18.578125 0.53125 C 13.578125 0.53125 9.5 -1.109375 6.34375 -4.390625 C 3.1875 -7.671875 1.609375 -12.457031 1.609375 -18.75 C 1.609375 -25.039062 3.203125 -29.804688 6.390625 -33.046875 C 9.578125 -36.296875 13.691406 -37.921875 18.734375 -37.921875 C 23.785156 -37.921875 27.863281 -36.320312 30.96875 -33.125 C 34.070312 -29.9375 35.625 -25.109375 35.625 -18.640625 C 35.625 -12.171875 34.035156 -7.359375 30.859375 -4.203125 C 27.679688 -1.046875 23.585938 0.53125 18.578125 0.53125 Z M 18.609375 -27.65625 C 16.898438 -27.65625 15.460938 -26.867188 14.296875 -25.296875 C 13.140625 -23.722656 12.5625 -21.519531 12.5625 -18.6875 C 12.5625 -15.851562 13.113281 -13.675781 14.21875 -12.15625 C 15.332031 -10.644531 16.785156 -9.890625 18.578125 -9.890625 C 20.378906 -9.890625 21.84375 -10.65625 22.96875 -12.1875 C 24.09375 -13.726562 24.65625 -15.921875 24.65625 -18.765625 C 24.65625 -21.617188 24.078125 -23.8125 22.921875 -25.34375 C 21.765625 -26.882812 20.328125 -27.65625 18.609375 -27.65625 Z M 18.609375 -27.65625 "/></g></g></g><g fill="#e5e7eb" fill-opacity="1"><g transform="translate(225.465719, 49.452477)"><g><path d="M 18.765625 -0.859375 C 18.765625 -0.140625 17 0.21875 13.46875 0.21875 C 9.945312 0.21875 8.1875 -0.140625 8.1875 -0.859375 L 8.1875 -27.703125 L 1.765625 -27.703125 C 1.160156 -27.703125 0.734375 -28.523438 0.484375 -30.171875 C 0.378906 -30.953125 0.328125 -31.75 0.328125 -32.5625 C 0.328125 -33.382812 0.378906 -34.191406 0.484375 -34.984375 C 0.734375 -36.617188 1.160156 -37.4375 1.765625 -37.4375 L 25.03125 -37.4375 C 25.632812 -37.4375 26.0625 -36.617188 26.3125 -34.984375 C 26.414062 -34.191406 26.46875 -33.382812 26.46875 -32.5625 C 26.46875 -31.75 26.414062 -30.953125 26.3125 -30.171875 C 26.0625 -28.523438 25.632812 -27.703125 25.03125 -27.703125 L 18.765625 -27.703125 Z M 18.765625 -0.859375 "/></g></g></g></g></g><g fill="#e5e7eb" fill-opacity="1"><g transform="translate(84.80219, 74.284433)"><g><path d="M 1.53125 -1.90625 L 1.53125 -0.109375 C 1.53125 -0.0351562 1.492188 0 1.421875 0 L 0.671875 0 C 0.597656 0 0.5625 -0.0351562 0.5625 -0.109375 L 0.5625 -5.390625 C 0.5625 -5.472656 0.597656 -5.515625 0.671875 -5.515625 L 2.578125 -5.515625 C 3.265625 -5.515625 3.769531 -5.347656 4.09375 -5.015625 C 4.425781 -4.691406 4.59375 -4.265625 4.59375 -3.734375 C 4.59375 -3.203125 4.425781 -2.765625 4.09375 -2.421875 C 3.757812 -2.078125 3.296875 -1.90625 2.703125 -1.90625 Z M 1.53125 -2.796875 L 2.65625 -2.796875 C 2.800781 -2.796875 2.945312 -2.816406 3.09375 -2.859375 C 3.238281 -2.910156 3.359375 -3.003906 3.453125 -3.140625 C 3.554688 -3.273438 3.609375 -3.472656 3.609375 -3.734375 C 3.609375 -4.015625 3.519531 -4.226562 3.34375 -4.375 C 3.164062 -4.519531 2.941406 -4.59375 2.671875 -4.59375 L 1.53125 -4.59375 Z M 1.53125 -2.796875 "/></g></g></g><g fill="#e5e7eb" fill-opacity="1"><g transform="translate(93.43593, 74.284433)"><g><path d="M 3.015625 0.09375 C 2.191406 0.09375 1.554688 -0.160156 1.109375 -0.671875 C 0.660156 -1.179688 0.4375 -1.875 0.4375 -2.75 C 0.4375 -3.320312 0.535156 -3.820312 0.734375 -4.25 C 0.941406 -4.6875 1.238281 -5.019531 1.625 -5.25 C 2.007812 -5.488281 2.472656 -5.609375 3.015625 -5.609375 C 3.554688 -5.609375 4.015625 -5.488281 4.390625 -5.25 C 4.773438 -5.019531 5.066406 -4.6875 5.265625 -4.25 C 5.472656 -3.820312 5.578125 -3.320312 5.578125 -2.75 C 5.578125 -1.875 5.351562 -1.179688 4.90625 -0.671875 C 4.457031 -0.160156 3.828125 0.09375 3.015625 0.09375 Z M 3.015625 -0.828125 C 3.296875 -0.828125 3.554688 -0.882812 3.796875 -1 C 4.035156 -1.113281 4.226562 -1.3125 4.375 -1.59375 C 4.519531 -1.875 4.59375 -2.257812 4.59375 -2.75 C 4.59375 -3.238281 4.519531 -3.625 4.375 -3.90625 C 4.226562 -4.1875 4.03125 -4.382812 3.78125 -4.5 C 3.539062 -4.625 3.285156 -4.6875 3.015625 -4.6875 C 2.722656 -4.6875 2.457031 -4.625 2.21875 -4.5 C 1.976562 -4.382812 1.785156 -4.1875 1.640625 -3.90625 C 1.492188 -3.625 1.421875 -3.238281 1.421875 -2.75 C 1.421875 -2.257812 1.492188 -1.875 1.640625 -1.59375 C 1.785156 -1.3125 1.976562 -1.113281 2.21875 -1 C 2.457031 -0.882812 2.722656 -0.828125 3.015625 -0.828125 Z M 3.015625 -0.828125 "/></g></g></g><g fill="#e5e7eb" fill-opacity="1"><g transform="translate(103.20798, 74.284433)"><g><path d="M 2.15625 -1.234375 L 3.171875 -5.375 C 3.191406 -5.46875 3.238281 -5.515625 3.3125 -5.515625 L 3.59375 -5.515625 C 3.820312 -5.515625 4.003906 -5.46875 4.140625 -5.375 C 4.273438 -5.28125 4.378906 -5.082031 4.453125 -4.78125 L 5.328125 -1.234375 L 6.28125 -5.375 C 6.3125 -5.46875 6.359375 -5.515625 6.421875 -5.515625 L 7.203125 -5.515625 C 7.265625 -5.515625 7.285156 -5.472656 7.265625 -5.390625 L 5.9375 -0.109375 C 5.914062 -0.0351562 5.875 0 5.8125 0 L 4.9375 0 C 4.875 0 4.828125 -0.0351562 4.796875 -0.109375 L 3.703125 -4.140625 L 2.65625 -0.109375 C 2.625 -0.0351562 2.578125 0 2.515625 0 L 1.640625 0 C 1.566406 0 1.519531 -0.0351562 1.5 -0.109375 L 0.21875 -5.375 C 0.207031 -5.40625 0.207031 -5.4375 0.21875 -5.46875 C 0.226562 -5.5 0.253906 -5.515625 0.296875 -5.515625 L 0.5 -5.515625 C 0.71875 -5.515625 0.898438 -5.46875 1.046875 -5.375 C 1.191406 -5.28125 1.296875 -5.082031 1.359375 -4.78125 Z M 2.15625 -1.234375 "/></g></g></g><g fill="#e5e7eb" fill-opacity="1"><g transform="translate(114.435094, 74.284433)"><g><path d="M 1.53125 -0.90625 L 3.3125 -0.90625 C 3.695312 -0.90625 3.890625 -0.71875 3.890625 -0.34375 L 3.890625 -0.140625 C 3.890625 -0.046875 3.84375 0 3.75 0 L 0.671875 0 C 0.597656 0 0.5625 -0.0351562 0.5625 -0.109375 L 0.5625 -5.390625 C 0.5625 -5.472656 0.597656 -5.515625 0.671875 -5.515625 L 3.234375 -5.515625 C 3.609375 -5.515625 3.796875 -5.328125 3.796875 -4.953125 L 3.796875 -4.75 C 3.796875 -4.65625 3.753906 -4.609375 3.671875 -4.609375 L 1.53125 -4.609375 L 1.53125 -3.203125 L 3.03125 -3.203125 C 3.414062 -3.203125 3.609375 -3.019531 3.609375 -2.65625 L 3.609375 -2.4375 C 3.609375 -2.34375 3.566406 -2.296875 3.484375 -2.296875 L 1.53125 -2.296875 Z M 1.53125 -0.90625 "/></g></g></g><g fill="#e5e7eb" fill-opacity="1"><g transform="translate(122.33635, 74.284433)"><g><path d="M 1.53125 -1.90625 L 1.53125 -0.109375 C 1.53125 -0.0351562 1.492188 0 1.421875 0 L 0.671875 0 C 0.597656 0 0.5625 -0.0351562 0.5625 -0.109375 L 0.5625 -5.390625 C 0.5625 -5.472656 0.597656 -5.515625 0.671875 -5.515625 L 2.578125 -5.515625 C 3.265625 -5.515625 3.769531 -5.347656 4.09375 -5.015625 C 4.425781 -4.691406 4.59375 -4.265625 4.59375 -3.734375 C 4.59375 -3.316406 4.488281 -2.960938 4.28125 -2.671875 C 4.082031 -2.378906 3.816406 -2.171875 3.484375 -2.046875 L 4.625 -0.109375 C 4.632812 -0.078125 4.632812 -0.0507812 4.625 -0.03125 C 4.613281 -0.0078125 4.59375 0 4.5625 0 L 3.734375 0 C 3.628906 0 3.550781 -0.0390625 3.5 -0.125 L 2.515625 -1.90625 Z M 1.53125 -2.796875 L 2.65625 -2.796875 C 2.914062 -2.796875 3.140625 -2.863281 3.328125 -3 C 3.523438 -3.132812 3.625 -3.378906 3.625 -3.734375 C 3.625 -4.015625 3.535156 -4.226562 3.359375 -4.375 C 3.179688 -4.519531 2.953125 -4.59375 2.671875 -4.59375 L 1.53125 -4.59375 Z M 1.53125 -2.796875 "/></g></g></g><g fill="#e5e7eb" fill-opacity="1"><g transform="translate(131.039376, 74.284433)"><g><path d="M 0.671875 0 C 0.597656 0 0.5625 -0.0351562 0.5625 -0.109375 L 0.5625 -5.390625 C 0.5625 -5.472656 0.597656 -5.515625 0.671875 -5.515625 L 0.765625 -5.515625 C 1.023438 -5.515625 1.21875 -5.445312 1.34375 -5.3125 C 1.46875 -5.175781 1.53125 -4.953125 1.53125 -4.640625 L 1.53125 -0.109375 C 1.53125 -0.0351562 1.492188 0 1.421875 0 Z M 0.671875 0 "/></g></g></g><g fill="#e5e7eb" fill-opacity="1"><g transform="translate(136.901574, 74.284433)"><g><path d="M 3.75 -1.78125 L 3.75 -5.390625 C 3.75 -5.472656 3.785156 -5.515625 3.859375 -5.515625 L 3.9375 -5.515625 C 4.1875 -5.515625 4.378906 -5.445312 4.515625 -5.3125 C 4.648438 -5.175781 4.71875 -4.953125 4.71875 -4.640625 L 4.71875 -0.109375 C 4.71875 -0.0351562 4.679688 0 4.609375 0 L 3.90625 0 C 3.8125 0 3.738281 -0.0390625 3.6875 -0.125 L 1.53125 -3.640625 L 1.53125 -0.109375 C 1.53125 -0.0351562 1.492188 0 1.421875 0 L 0.65625 0 C 0.59375 0 0.5625 -0.0351562 0.5625 -0.109375 L 0.5625 -5.390625 C 0.5625 -5.472656 0.59375 -5.515625 0.65625 -5.515625 L 0.953125 -5.515625 C 1.160156 -5.515625 1.320312 -5.472656 1.4375 -5.390625 C 1.550781 -5.316406 1.660156 -5.191406 1.765625 -5.015625 Z M 3.75 -1.78125 "/></g></g></g><g fill="#e5e7eb" fill-opacity="1"><g transform="translate(145.941151, 74.284433)"><g><path d="M 4.203125 -1.15625 L 4.203125 -2.125 L 3.453125 -2.125 C 3.066406 -2.125 2.875 -2.3125 2.875 -2.6875 L 2.875 -2.859375 C 2.875 -2.960938 2.914062 -3.015625 3 -3.015625 L 5.015625 -3.015625 C 5.085938 -3.015625 5.125 -2.96875 5.125 -2.875 L 5.125 -0.9375 C 5.125 -0.84375 5.109375 -0.769531 5.078125 -0.71875 C 5.054688 -0.664062 5.003906 -0.601562 4.921875 -0.53125 C 4.640625 -0.3125 4.351562 -0.148438 4.0625 -0.046875 C 3.78125 0.046875 3.457031 0.09375 3.09375 0.09375 C 2.601562 0.09375 2.15625 -0.00390625 1.75 -0.203125 C 1.351562 -0.398438 1.035156 -0.707031 0.796875 -1.125 C 0.554688 -1.550781 0.4375 -2.097656 0.4375 -2.765625 C 0.4375 -3.347656 0.546875 -3.851562 0.765625 -4.28125 C 0.984375 -4.707031 1.296875 -5.035156 1.703125 -5.265625 C 2.109375 -5.492188 2.585938 -5.609375 3.140625 -5.609375 C 3.421875 -5.609375 3.664062 -5.585938 3.875 -5.546875 C 4.09375 -5.503906 4.296875 -5.445312 4.484375 -5.375 C 4.679688 -5.300781 4.804688 -5.207031 4.859375 -5.09375 C 4.921875 -4.976562 4.925781 -4.828125 4.875 -4.640625 L 4.828125 -4.421875 C 4.804688 -4.335938 4.769531 -4.296875 4.71875 -4.296875 C 4.695312 -4.296875 4.671875 -4.300781 4.640625 -4.3125 C 4.617188 -4.332031 4.59375 -4.34375 4.5625 -4.34375 C 4.144531 -4.570312 3.691406 -4.6875 3.203125 -4.6875 C 2.660156 -4.6875 2.234375 -4.53125 1.921875 -4.21875 C 1.609375 -3.90625 1.453125 -3.40625 1.453125 -2.71875 C 1.453125 -2.113281 1.59375 -1.644531 1.875 -1.3125 C 2.164062 -0.976562 2.566406 -0.8125 3.078125 -0.8125 C 3.285156 -0.8125 3.476562 -0.835938 3.65625 -0.890625 C 3.84375 -0.941406 4.023438 -1.03125 4.203125 -1.15625 Z M 4.203125 -1.15625 "/></g></g></g><g fill="#e5e7eb" fill-opacity="1"><g transform="translate(155.257875, 74.284433)"><g/></g></g><g fill="#e5e7eb" fill-opacity="1"><g transform="translate(160.565769, 74.284433)"><g><path d="M 1.6875 -4.59375 L 0.234375 -4.59375 C 0.160156 -4.59375 0.125 -4.632812 0.125 -4.71875 L 0.125 -5.390625 C 0.125 -5.472656 0.160156 -5.515625 0.234375 -5.515625 L 3.703125 -5.515625 C 4.097656 -5.515625 4.296875 -5.320312 4.296875 -4.9375 L 4.296875 -4.734375 C 4.296875 -4.703125 4.28125 -4.671875 4.25 -4.640625 C 4.226562 -4.609375 4.195312 -4.59375 4.15625 -4.59375 L 2.671875 -4.59375 L 2.671875 -0.109375 C 2.671875 -0.0351562 2.640625 0 2.578125 0 L 1.8125 0 C 1.726562 0 1.6875 -0.0351562 1.6875 -0.109375 Z M 1.6875 -4.59375 "/></g></g></g><g fill="#e5e7eb" fill-opacity="1"><g transform="translate(168.724384, 74.284433)"><g><path d="M 1.53125 -2.28125 L 1.53125 -0.109375 C 1.53125 -0.0351562 1.492188 0 1.421875 0 L 0.671875 0 C 0.597656 0 0.5625 -0.0351562 0.5625 -0.109375 L 0.5625 -5.390625 C 0.5625 -5.472656 0.597656 -5.515625 0.671875 -5.515625 L 0.765625 -5.515625 C 1.015625 -5.515625 1.203125 -5.445312 1.328125 -5.3125 C 1.460938 -5.175781 1.53125 -4.953125 1.53125 -4.640625 L 1.53125 -3.15625 L 3.703125 -3.15625 L 3.703125 -5.390625 C 3.703125 -5.472656 3.738281 -5.515625 3.8125 -5.515625 L 3.90625 -5.515625 C 4.164062 -5.515625 4.359375 -5.445312 4.484375 -5.3125 C 4.609375 -5.175781 4.671875 -4.953125 4.671875 -4.640625 L 4.671875 -0.109375 C 4.671875 -0.0351562 4.640625 0 4.578125 0 L 3.8125 0 C 3.738281 0 3.703125 -0.0351562 3.703125 -0.109375 L 3.703125 -2.28125 Z M 1.53125 -2.28125 "/></g></g></g><g fill="#e5e7eb" fill-opacity="1"><g transform="translate(177.724366, 74.284433)"><g><path d="M 1.53125 -0.90625 L 3.3125 -0.90625 C 3.695312 -0.90625 3.890625 -0.71875 3.890625 -0.34375 L 3.890625 -0.140625 C 3.890625 -0.046875 3.84375 0 3.75 0 L 0.671875 0 C 0.597656 0 0.5625 -0.0351562 0.5625 -0.109375 L 0.5625 -5.390625 C 0.5625 -5.472656 0.597656 -5.515625 0.671875 -5.515625 L 3.234375 -5.515625 C 3.609375 -5.515625 3.796875 -5.328125 3.796875 -4.953125 L 3.796875 -4.75 C 3.796875 -4.65625 3.753906 -4.609375 3.671875 -4.609375 L 1.53125 -4.609375 L 1.53125 -3.203125 L 3.03125 -3.203125 C 3.414062 -3.203125 3.609375 -3.019531 3.609375 -2.65625 L 3.609375 -2.4375 C 3.609375 -2.34375 3.566406 -2.296875 3.484375 -2.296875 L 1.53125 -2.296875 Z M 1.53125 -0.90625 "/></g></g></g><g fill="#e5e7eb" fill-opacity="1"><g transform="translate(185.625622, 74.284433)"><g/></g></g><g fill="#e5e7eb" fill-opacity="1"><g transform="translate(190.933516, 74.284433)"><g><path d="M 2.984375 0.09375 C 2.472656 0.09375 2.023438 -0.015625 1.640625 -0.234375 C 1.253906 -0.460938 0.957031 -0.789062 0.75 -1.21875 C 0.539062 -1.644531 0.4375 -2.148438 0.4375 -2.734375 C 0.4375 -3.335938 0.546875 -3.847656 0.765625 -4.265625 C 0.992188 -4.691406 1.300781 -5.019531 1.6875 -5.25 C 2.082031 -5.488281 2.535156 -5.609375 3.046875 -5.609375 C 3.316406 -5.609375 3.554688 -5.582031 3.765625 -5.53125 C 3.972656 -5.488281 4.160156 -5.429688 4.328125 -5.359375 C 4.515625 -5.265625 4.632812 -5.160156 4.6875 -5.046875 C 4.738281 -4.941406 4.75 -4.800781 4.71875 -4.625 L 4.65625 -4.375 C 4.625 -4.300781 4.59375 -4.265625 4.5625 -4.265625 C 4.519531 -4.265625 4.46875 -4.28125 4.40625 -4.3125 C 4.195312 -4.425781 3.992188 -4.515625 3.796875 -4.578125 C 3.597656 -4.640625 3.359375 -4.671875 3.078125 -4.671875 C 2.585938 -4.671875 2.1875 -4.507812 1.875 -4.1875 C 1.570312 -3.875 1.421875 -3.390625 1.421875 -2.734375 C 1.421875 -2.097656 1.578125 -1.617188 1.890625 -1.296875 C 2.203125 -0.984375 2.601562 -0.828125 3.09375 -0.828125 C 3.445312 -0.828125 3.75 -0.894531 4 -1.03125 C 4.25 -1.175781 4.4375 -1.320312 4.5625 -1.46875 C 4.59375 -1.507812 4.617188 -1.535156 4.640625 -1.546875 C 4.671875 -1.554688 4.695312 -1.5625 4.71875 -1.5625 C 4.820312 -1.5625 4.875 -1.476562 4.875 -1.3125 C 4.875 -1.207031 4.835938 -1.070312 4.765625 -0.90625 C 4.703125 -0.75 4.597656 -0.59375 4.453125 -0.4375 C 4.304688 -0.28125 4.109375 -0.148438 3.859375 -0.046875 C 3.617188 0.046875 3.328125 0.09375 2.984375 0.09375 Z M 2.984375 0.09375 "/></g></g></g><g fill="#e5e7eb" fill-opacity="1"><g transform="translate(199.755329, 74.284433)"><g><path d="M 1.53125 -1.90625 L 1.53125 -0.109375 C 1.53125 -0.0351562 1.492188 0 1.421875 0 L 0.671875 0 C 0.597656 0 0.5625 -0.0351562 0.5625 -0.109375 L 0.5625 -5.390625 C 0.5625 -5.472656 0.597656 -5.515625 0.671875 -5.515625 L 2.578125 -5.515625 C 3.265625 -5.515625 3.769531 -5.347656 4.09375 -5.015625 C 4.425781 -4.691406 4.59375 -4.265625 4.59375 -3.734375 C 4.59375 -3.316406 4.488281 -2.960938 4.28125 -2.671875 C 4.082031 -2.378906 3.816406 -2.171875 3.484375 -2.046875 L 4.625 -0.109375 C 4.632812 -0.078125 4.632812 -0.0507812 4.625 -0.03125 C 4.613281 -0.0078125 4.59375 0 4.5625 0 L 3.734375 0 C 3.628906 0 3.550781 -0.0390625 3.5 -0.125 L 2.515625 -1.90625 Z M 1.53125 -2.796875 L 2.65625 -2.796875 C 2.914062 -2.796875 3.140625 -2.863281 3.328125 -3 C 3.523438 -3.132812 3.625 -3.378906 3.625 -3.734375 C 3.625 -4.015625 3.535156 -4.226562 3.359375 -4.375 C 3.179688 -4.519531 2.953125 -4.59375 2.671875 -4.59375 L 1.53125 -4.59375 Z M 1.53125 -2.796875 "/></g></g></g><g fill="#e5e7eb" fill-opacity="1"><g transform="translate(208.458356, 74.284433)"><g><path d="M 1.53125 -0.90625 L 3.3125 -0.90625 C 3.695312 -0.90625 3.890625 -0.71875 3.890625 -0.34375 L 3.890625 -0.140625 C 3.890625 -0.046875 3.84375 0 3.75 0 L 0.671875 0 C 0.597656 0 0.5625 -0.0351562 0.5625 -0.109375 L 0.5625 -5.390625 C 0.5625 -5.472656 0.597656 -5.515625 0.671875 -5.515625 L 3.234375 -5.515625 C 3.609375 -5.515625 3.796875 -5.328125 3.796875 -4.953125 L 3.796875 -4.75 C 3.796875 -4.65625 3.753906 -4.609375 3.671875 -4.609375 L 1.53125 -4.609375 L 1.53125 -3.203125 L 3.03125 -3.203125 C 3.414062 -3.203125 3.609375 -3.019531 3.609375 -2.65625 L 3.609375 -2.4375 C 3.609375 -2.34375 3.566406 -2.296875 3.484375 -2.296875 L 1.53125 -2.296875 Z M 1.53125 -0.90625 "/></g></g></g><g fill="#e5e7eb" fill-opacity="1"><g transform="translate(216.361313, 74.284433)"><g><path d="M 1.53125 -1.390625 L 1.078125 -0.125 C 1.054688 -0.0390625 1.007812 0 0.9375 0 L 0.171875 0 C 0.140625 0 0.113281 -0.0078125 0.09375 -0.03125 C 0.0820312 -0.0507812 0.0820312 -0.078125 0.09375 -0.109375 L 2.015625 -5.40625 C 2.035156 -5.476562 2.070312 -5.515625 2.125 -5.515625 L 2.453125 -5.515625 C 2.691406 -5.515625 2.875 -5.460938 3 -5.359375 C 3.132812 -5.253906 3.257812 -5.0625 3.375 -4.78125 L 5.0625 -0.109375 C 5.070312 -0.078125 5.070312 -0.0507812 5.0625 -0.03125 C 5.050781 -0.0078125 5.03125 0 5 0 L 4.203125 0 C 4.109375 0 4.046875 -0.0390625 4.015625 -0.125 L 3.578125 -1.390625 Z M 1.828125 -2.203125 L 3.296875 -2.203125 L 2.5625 -4.34375 Z M 1.828125 -2.203125 "/></g></g></g><g fill="#e5e7eb" fill-opacity="1"><g transform="translate(225.282104, 74.284433)"><g><path d="M 1.6875 -4.59375 L 0.234375 -4.59375 C 0.160156 -4.59375 0.125 -4.632812 0.125 -4.71875 L 0.125 -5.390625 C 0.125 -5.472656 0.160156 -5.515625 0.234375 -5.515625 L 3.703125 -5.515625 C 4.097656 -5.515625 4.296875 -5.320312 4.296875 -4.9375 L 4.296875 -4.734375 C 4.296875 -4.703125 4.28125 -4.671875 4.25 -4.640625 C 4.226562 -4.609375 4.195312 -4.59375 4.15625 -4.59375 L 2.671875 -4.59375 L 2.671875 -0.109375 C 2.671875 -0.0351562 2.640625 0 2.578125 0 L 1.8125 0 C 1.726562 0 1.6875 -0.0351562 1.6875 -0.109375 Z M 1.6875 -4.59375 "/></g></g></g><g fill="#e5e7eb" fill-opacity="1"><g transform="translate(233.44072, 74.284433)"><g><path d="M 0.671875 0 C 0.597656 0 0.5625 -0.0351562 0.5625 -0.109375 L 0.5625 -5.390625 C 0.5625 -5.472656 0.597656 -5.515625 0.671875 -5.515625 L 0.765625 -5.515625 C 1.023438 -5.515625 1.21875 -5.445312 1.34375 -5.3125 C 1.46875 -5.175781 1.53125 -4.953125 1.53125 -4.640625 L 1.53125 -0.109375 C 1.53125 -0.0351562 1.492188 0 1.421875 0 Z M 0.671875 0 "/></g></g></g><g fill="#e5e7eb" fill-opacity="1"><g transform="translate(239.302917, 74.284433)"><g><path d="M 2.515625 -1.15625 L 3.859375 -5.375 C 3.890625 -5.46875 3.953125 -5.515625 4.046875 -5.515625 L 4.75 -5.515625 C 4.820312 -5.515625 4.847656 -5.472656 4.828125 -5.390625 L 3.0625 -0.109375 C 3.03125 -0.0351562 2.988281 0 2.9375 0 L 2.03125 0 C 1.945312 0 1.894531 -0.0351562 1.875 -0.109375 L 0.109375 -5.375 C 0.0976562 -5.40625 0.0976562 -5.4375 0.109375 -5.46875 C 0.117188 -5.5 0.140625 -5.515625 0.171875 -5.515625 L 0.5 -5.515625 C 0.726562 -5.515625 0.90625 -5.460938 1.03125 -5.359375 C 1.164062 -5.265625 1.273438 -5.070312 1.359375 -4.78125 Z M 2.515625 -1.15625 "/></g></g></g><g fill="#e5e7eb" fill-opacity="1"><g transform="translate(247.986146, 74.284433)"><g><path d="M 1.53125 -0.90625 L 3.3125 -0.90625 C 3.695312 -0.90625 3.890625 -0.71875 3.890625 -0.34375 L 3.890625 -0.140625 C 3.890625 -0.046875 3.84375 0 3.75 0 L 0.671875 0 C 0.597656 0 0.5625 -0.0351562 0.5625 -0.109375 L 0.5625 -5.390625 C 0.5625 -5.472656 0.597656 -5.515625 0.671875 -5.515625 L 3.234375 -5.515625 C 3.609375 -5.515625 3.796875 -5.328125 3.796875 -4.953125 L 3.796875 -4.75 C 3.796875 -4.65625 3.753906 -4.609375 3.671875 -4.609375 L 1.53125 -4.609375 L 1.53125 -3.203125 L 3.03125 -3.203125 C 3.414062 -3.203125 3.609375 -3.019531 3.609375 -2.65625 L 3.609375 -2.4375 C 3.609375 -2.34375 3.566406 -2.296875 3.484375 -2.296875 L 1.53125 -2.296875 Z M 1.53125 -0.90625 "/></g></g></g><g fill="#e5e7eb" fill-opacity="1"><g transform="translate(255.887402, 74.284433)"><g/></g></g><g fill="#e5e7eb" fill-opacity="1"><g transform="translate(261.195296, 74.284433)"><g><path d="M 1.53125 -0.90625 L 3.3125 -0.90625 C 3.695312 -0.90625 3.890625 -0.71875 3.890625 -0.34375 L 3.890625 -0.140625 C 3.890625 -0.046875 3.84375 0 3.75 0 L 0.671875 0 C 0.597656 0 0.5625 -0.0351562 0.5625 -0.109375 L 0.5625 -5.390625 C 0.5625 -5.472656 0.597656 -5.515625 0.671875 -5.515625 L 3.234375 -5.515625 C 3.609375 -5.515625 3.796875 -5.328125 3.796875 -4.953125 L 3.796875 -4.75 C 3.796875 -4.65625 3.753906 -4.609375 3.671875 -4.609375 L 1.53125 -4.609375 L 1.53125 -3.203125 L 3.03125 -3.203125 C 3.414062 -3.203125 3.609375 -3.019531 3.609375 -2.65625 L 3.609375 -2.4375 C 3.609375 -2.34375 3.566406 -2.296875 3.484375 -2.296875 L 1.53125 -2.296875 Z M 1.53125 -0.90625 "/></g></g></g><g fill="#e5e7eb" fill-opacity="1"><g transform="translate(269.096552, 74.284433)"><g><path d="M 2.984375 0.09375 C 2.472656 0.09375 2.023438 -0.015625 1.640625 -0.234375 C 1.253906 -0.460938 0.957031 -0.789062 0.75 -1.21875 C 0.539062 -1.644531 0.4375 -2.148438 0.4375 -2.734375 C 0.4375 -3.335938 0.546875 -3.847656 0.765625 -4.265625 C 0.992188 -4.691406 1.300781 -5.019531 1.6875 -5.25 C 2.082031 -5.488281 2.535156 -5.609375 3.046875 -5.609375 C 3.316406 -5.609375 3.554688 -5.582031 3.765625 -5.53125 C 3.972656 -5.488281 4.160156 -5.429688 4.328125 -5.359375 C 4.515625 -5.265625 4.632812 -5.160156 4.6875 -5.046875 C 4.738281 -4.941406 4.75 -4.800781 4.71875 -4.625 L 4.65625 -4.375 C 4.625 -4.300781 4.59375 -4.265625 4.5625 -4.265625 C 4.519531 -4.265625 4.46875 -4.28125 4.40625 -4.3125 C 4.195312 -4.425781 3.992188 -4.515625 3.796875 -4.578125 C 3.597656 -4.640625 3.359375 -4.671875 3.078125 -4.671875 C 2.585938 -4.671875 2.1875 -4.507812 1.875 -4.1875 C 1.570312 -3.875 1.421875 -3.390625 1.421875 -2.734375 C 1.421875 -2.097656 1.578125 -1.617188 1.890625 -1.296875 C 2.203125 -0.984375 2.601562 -0.828125 3.09375 -0.828125 C 3.445312 -0.828125 3.75 -0.894531 4 -1.03125 C 4.25 -1.175781 4.4375 -1.320312 4.5625 -1.46875 C 4.59375 -1.507812 4.617188 -1.535156 4.640625 -1.546875 C 4.671875 -1.554688 4.695312 -1.5625 4.71875 -1.5625 C 4.820312 -1.5625 4.875 -1.476562 4.875 -1.3125 C 4.875 -1.207031 4.835938 -1.070312 4.765625 -0.90625 C 4.703125 -0.75 4.597656 -0.59375 4.453125 -0.4375 C 4.304688 -0.28125 4.109375 -0.148438 3.859375 -0.046875 C 3.617188 0.046875 3.328125 0.09375 2.984375 0.09375 Z M 2.984375 0.09375 "/></g></g></g><g fill="#e5e7eb" fill-opacity="1"><g transform="translate(277.918365, 74.284433)"><g><path d="M 3.015625 0.09375 C 2.191406 0.09375 1.554688 -0.160156 1.109375 -0.671875 C 0.660156 -1.179688 0.4375 -1.875 0.4375 -2.75 C 0.4375 -3.320312 0.535156 -3.820312 0.734375 -4.25 C 0.941406 -4.6875 1.238281 -5.019531 1.625 -5.25 C 2.007812 -5.488281 2.472656 -5.609375 3.015625 -5.609375 C 3.554688 -5.609375 4.015625 -5.488281 4.390625 -5.25 C 4.773438 -5.019531 5.066406 -4.6875 5.265625 -4.25 C 5.472656 -3.820312 5.578125 -3.320312 5.578125 -2.75 C 5.578125 -1.875 5.351562 -1.179688 4.90625 -0.671875 C 4.457031 -0.160156 3.828125 0.09375 3.015625 0.09375 Z M 3.015625 -0.828125 C 3.296875 -0.828125 3.554688 -0.882812 3.796875 -1 C 4.035156 -1.113281 4.226562 -1.3125 4.375 -1.59375 C 4.519531 -1.875 4.59375 -2.257812 4.59375 -2.75 C 4.59375 -3.238281 4.519531 -3.625 4.375 -3.90625 C 4.226562 -4.1875 4.03125 -4.382812 3.78125 -4.5 C 3.539062 -4.625 3.285156 -4.6875 3.015625 -4.6875 C 2.722656 -4.6875 2.457031 -4.625 2.21875 -4.5 C 1.976562 -4.382812 1.785156 -4.1875 1.640625 -3.90625 C 1.492188 -3.625 1.421875 -3.238281 1.421875 -2.75 C 1.421875 -2.257812 1.492188 -1.875 1.640625 -1.59375 C 1.785156 -1.3125 1.976562 -1.113281 2.21875 -1 C 2.457031 -0.882812 2.722656 -0.828125 3.015625 -0.828125 Z M 3.015625 -0.828125 "/></g></g></g><g fill="#e5e7eb" fill-opacity="1"><g transform="translate(287.690415, 74.284433)"><g><path d="M 3.75 -1.78125 L 3.75 -5.390625 C 3.75 -5.472656 3.785156 -5.515625 3.859375 -5.515625 L 3.9375 -5.515625 C 4.1875 -5.515625 4.378906 -5.445312 4.515625 -5.3125 C 4.648438 -5.175781 4.71875 -4.953125 4.71875 -4.640625 L 4.71875 -0.109375 C 4.71875 -0.0351562 4.679688 0 4.609375 0 L 3.90625 0 C 3.8125 0 3.738281 -0.0390625 3.6875 -0.125 L 1.53125 -3.640625 L 1.53125 -0.109375 C 1.53125 -0.0351562 1.492188 0 1.421875 0 L 0.65625 0 C 0.59375 0 0.5625 -0.0351562 0.5625 -0.109375 L 0.5625 -5.390625 C 0.5625 -5.472656 0.59375 -5.515625 0.65625 -5.515625 L 0.953125 -5.515625 C 1.160156 -5.515625 1.320312 -5.472656 1.4375 -5.390625 C 1.550781 -5.316406 1.660156 -5.191406 1.765625 -5.015625 Z M 3.75 -1.78125 "/></g></g></g><g fill="#e5e7eb" fill-opacity="1"><g transform="translate(296.729992, 74.284433)"><g><path d="M 3.015625 0.09375 C 2.191406 0.09375 1.554688 -0.160156 1.109375 -0.671875 C 0.660156 -1.179688 0.4375 -1.875 0.4375 -2.75 C 0.4375 -3.320312 0.535156 -3.820312 0.734375 -4.25 C 0.941406 -4.6875 1.238281 -5.019531 1.625 -5.25 C 2.007812 -5.488281 2.472656 -5.609375 3.015625 -5.609375 C 3.554688 -5.609375 4.015625 -5.488281 4.390625 -5.25 C 4.773438 -5.019531 5.066406 -4.6875 5.265625 -4.25 C 5.472656 -3.820312 5.578125 -3.320312 5.578125 -2.75 C 5.578125 -1.875 5.351562 -1.179688 4.90625 -0.671875 C 4.457031 -0.160156 3.828125 0.09375 3.015625 0.09375 Z M 3.015625 -0.828125 C 3.296875 -0.828125 3.554688 -0.882812 3.796875 -1 C 4.035156 -1.113281 4.226562 -1.3125 4.375 -1.59375 C 4.519531 -1.875 4.59375 -2.257812 4.59375 -2.75 C 4.59375 -3.238281 4.519531 -3.625 4.375 -3.90625 C 4.226562 -4.1875 4.03125 -4.382812 3.78125 -4.5 C 3.539062 -4.625 3.285156 -4.6875 3.015625 -4.6875 C 2.722656 -4.6875 2.457031 -4.625 2.21875 -4.5 C 1.976562 -4.382812 1.785156 -4.1875 1.640625 -3.90625 C 1.492188 -3.625 1.421875 -3.238281 1.421875 -2.75 C 1.421875 -2.257812 1.492188 -1.875 1.640625 -1.59375 C 1.785156 -1.3125 1.976562 -1.113281 2.21875 -1 C 2.457031 -0.882812 2.722656 -0.828125 3.015625 -0.828125 Z M 3.015625 -0.828125 "/></g></g></g><g fill="#e5e7eb" fill-opacity="1"><g transform="translate(306.502042, 74.284433)"><g><path d="M 3.1875 -1.4375 L 4.34375 -5.390625 C 4.351562 -5.421875 4.367188 -5.445312 4.390625 -5.46875 C 4.410156 -5.5 4.441406 -5.515625 4.484375 -5.515625 L 5.03125 -5.515625 C 5.21875 -5.515625 5.375 -5.457031 5.5 -5.34375 C 5.632812 -5.226562 5.707031 -5.078125 5.71875 -4.890625 L 5.96875 -0.109375 C 5.96875 -0.0351562 5.945312 0 5.90625 0 L 5.125 0 C 5.050781 0 5.015625 -0.0351562 5.015625 -0.109375 L 4.8125 -3.96875 L 3.65625 -0.109375 C 3.644531 -0.0351562 3.601562 0 3.53125 0 L 2.796875 0 C 2.742188 0 2.703125 -0.0351562 2.671875 -0.109375 L 1.5625 -3.9375 L 1.34375 -0.109375 C 1.34375 -0.0351562 1.316406 0 1.265625 0 L 0.484375 0 C 0.421875 0 0.390625 -0.0351562 0.390625 -0.109375 L 0.6875 -5.390625 C 0.6875 -5.472656 0.722656 -5.515625 0.796875 -5.515625 L 1.359375 -5.515625 C 1.566406 -5.515625 1.734375 -5.476562 1.859375 -5.40625 C 1.984375 -5.34375 2.070312 -5.210938 2.125 -5.015625 Z M 3.1875 -1.4375 "/></g></g></g><g fill="#e5e7eb" fill-opacity="1"><g transform="translate(316.63043, 74.284433)"><g><path d="M 1.828125 -2.0625 L 0.046875 -5.390625 C 0.0351562 -5.410156 0.0351562 -5.4375 0.046875 -5.46875 C 0.0546875 -5.5 0.078125 -5.515625 0.109375 -5.515625 L 0.5 -5.515625 C 0.707031 -5.515625 0.875 -5.472656 1 -5.390625 C 1.132812 -5.304688 1.253906 -5.160156 1.359375 -4.953125 L 2.359375 -3.046875 L 3.5625 -5.375 C 3.613281 -5.46875 3.675781 -5.515625 3.75 -5.515625 L 4.515625 -5.515625 C 4.554688 -5.515625 4.582031 -5.5 4.59375 -5.46875 C 4.601562 -5.4375 4.601562 -5.40625 4.59375 -5.375 L 2.796875 -2.046875 L 2.796875 -0.109375 C 2.796875 -0.0351562 2.757812 0 2.6875 0 L 1.921875 0 C 1.859375 0 1.828125 -0.0351562 1.828125 -0.109375 Z M 1.828125 -2.0625 "/></g></g></g><g fill="#e5e7eb" fill-opacity="1"><g transform="translate(325.00681, 74.284433)"><g><path d="M 0.953125 -1.109375 C 1.117188 -1.109375 1.257812 -1.046875 1.375 -0.921875 C 1.5 -0.804688 1.5625 -0.660156 1.5625 -0.484375 C 1.5625 -0.316406 1.5 -0.171875 1.375 -0.046875 C 1.257812 0.0664062 1.117188 0.125 0.953125 0.125 C 0.785156 0.125 0.640625 0.0664062 0.515625 -0.046875 C 0.398438 -0.171875 0.34375 -0.316406 0.34375 -0.484375 C 0.34375 -0.660156 0.398438 -0.804688 0.515625 -0.921875 C 0.640625 -1.046875 0.785156 -1.109375 0.953125 -1.109375 Z M 0.953125 -1.109375 "/></g></g></g></svg>