<svg xmlns="http://www.w3.org/2000/svg" xmlns:xlink="http://www.w3.org/1999/xlink" width="179" zoomAndPan="magnify" viewBox="0 0 134.25 98.249997" height="131" preserveAspectRatio="xMidYMid meet" version="1.0"><defs><g/><clipPath id="3eb3000dfb"><path d="M 28.304688 31 L 104.222656 31 L 104.222656 61 L 28.304688 61 Z M 28.304688 31 " clip-rule="nonzero"/></clipPath><clipPath id="2e7ba08e62"><path d="M 28.304688 0 L 104.222656 0 L 104.222656 36 L 28.304688 36 Z M 28.304688 0 " clip-rule="nonzero"/></clipPath><clipPath id="1746aa1f72"><rect x="0" width="119" y="0" height="30"/></clipPath></defs><path fill="#1e1b4b" d="M 66.4375 18.082031 C 74.929688 18.082031 81.800781 25.011719 81.800781 33.445312 C 81.800781 41.9375 74.929688 48.863281 66.4375 48.863281 C 57.945312 48.863281 51.078125 41.933594 51.078125 33.445312 C 51.078125 25.011719 57.945312 18.082031 66.4375 18.082031 Z M 66.4375 18.082031 " fill-opacity="1" fill-rule="evenodd"/><path fill="#ffffff" d="M 66.4375 22.273438 C 66.941406 22.273438 67.445312 22.273438 67.945312 22.382812 C 67.164062 23.390625 66.660156 24.675781 66.660156 26.070312 C 66.660156 29.421875 69.398438 32.160156 72.75 32.160156 C 74.480469 32.160156 76.046875 31.433594 77.164062 30.261719 C 77.5 31.265625 77.609375 32.382812 77.609375 33.445312 C 77.609375 39.644531 72.640625 44.671875 66.4375 44.671875 C 60.238281 44.671875 55.210938 39.644531 55.210938 33.445312 C 55.210938 27.300781 60.238281 22.273438 66.4375 22.273438 Z M 60.574219 28.082031 C 61.914062 28.082031 63.03125 29.199219 63.03125 30.542969 C 63.03125 31.882812 61.914062 33 60.574219 33 C 59.230469 33 58.171875 31.882812 58.171875 30.542969 C 58.171875 29.199219 59.230469 28.082031 60.574219 28.082031 Z M 60.574219 28.082031 " fill-opacity="1" fill-rule="evenodd"/><g clip-path="url(#3eb3000dfb)"><path fill="#7c3aed" d="M 28.285156 45.0625 L 28.285156 50.816406 C 28.285156 56.234375 32.753906 60.703125 38.171875 60.703125 L 94.648438 60.703125 C 100.121094 60.703125 104.589844 56.234375 104.589844 50.816406 L 104.589844 31.097656 L 77.609375 49.644531 C 74.425781 51.878906 70.574219 53.164062 66.4375 53.164062 C 61.019531 53.164062 56.105469 50.984375 52.585938 47.464844 C 45.660156 40.652344 36.777344 39.589844 28.285156 45.0625 Z M 28.285156 45.0625 " fill-opacity="1" fill-rule="evenodd"/></g><g clip-path="url(#2e7ba08e62)"><path fill="#1e1b4b" d="M 28.285156 16.128906 L 28.285156 35.847656 L 54.875 17.523438 C 55.15625 17.300781 55.378906 17.132812 55.601562 17.023438 C 58.730469 14.957031 62.417969 13.78125 66.4375 13.78125 C 72.804688 13.78125 78.449219 16.800781 82.078125 21.492188 C 88.617188 30.039062 96.769531 30.429688 104.589844 21.769531 L 104.589844 16.128906 C 104.589844 10.710938 100.121094 6.242188 94.648438 6.242188 L 78 6.242188 L 76.660156 1.214844 C 76.492188 0.597656 76.15625 0.0390625 75.488281 0.0390625 L 57.332031 0.0390625 C 56.71875 0.0390625 56.328125 0.597656 56.160156 1.214844 L 54.875 6.242188 L 38.171875 6.242188 C 32.753906 6.242188 28.285156 10.710938 28.285156 16.128906 Z M 28.285156 16.128906 " fill-opacity="1" fill-rule="evenodd"/></g><path fill="#ffffff" d="M 36.496094 11.605469 L 43.367188 11.605469 C 44.484375 11.605469 45.378906 12.5 45.378906 13.617188 C 45.378906 14.730469 44.484375 15.679688 43.367188 15.679688 L 36.496094 15.679688 C 35.382812 15.679688 34.433594 14.730469 34.433594 13.617188 C 34.429688 12.5 35.382812 11.605469 36.496094 11.605469 Z M 36.496094 11.605469 " fill-opacity="1" fill-rule="evenodd"/><g transform="matrix(1, 0, 0, 1, 5, 62)"><g clip-path="url(#1746aa1f72)"><g fill="#1e1b4b" fill-opacity="1"><g transform="translate(0.144477, 23.730534)"><g><path d="M 18.78125 0.03125 C 17.289062 0.03125 16.546875 -0.132812 16.546875 -0.46875 L 16.015625 -10.515625 L 12.96875 -0.34375 C 12.894531 -0.144531 12.320312 -0.046875 11.25 -0.046875 C 10.1875 -0.046875 9.640625 -0.140625 9.609375 -0.328125 L 6.453125 -10.609375 L 6.109375 -0.625 C 6.085938 -0.375 5.769531 -0.203125 5.15625 -0.109375 C 4.539062 -0.015625 4.023438 0.03125 3.609375 0.03125 C 3.203125 0.03125 2.804688 0.00390625 2.421875 -0.046875 C 1.617188 -0.160156 1.226562 -0.367188 1.25 -0.671875 L 1.828125 -16.953125 C 1.828125 -17.347656 2.84375 -17.546875 4.875 -17.546875 C 5.476562 -17.546875 6.210938 -17.5 7.078125 -17.40625 C 7.953125 -17.3125 8.4375 -17.132812 8.53125 -16.875 L 11.34375 -8.984375 L 13.796875 -16.890625 C 13.941406 -17.328125 15.09375 -17.546875 17.25 -17.546875 C 17.863281 -17.546875 18.597656 -17.5 19.453125 -17.40625 C 20.316406 -17.3125 20.75 -17.148438 20.75 -16.921875 L 21.484375 -0.5 C 21.484375 -0.3125 21.15625 -0.175781 20.5 -0.09375 C 19.851562 -0.0078125 19.28125 0.03125 18.78125 0.03125 Z M 18.78125 0.03125 "/></g></g></g><g fill="#1e1b4b" fill-opacity="1"><g transform="translate(21.972968, 23.730534)"><g><path d="M 13.015625 0.046875 C 11.566406 0.046875 10.78125 -0.1875 10.65625 -0.65625 L 9.84375 -3.875 L 5.859375 -3.875 L 5.125 -0.78125 C 5.03125 -0.257812 4.234375 0 2.734375 0 C 1.929688 0 1.335938 -0.046875 0.953125 -0.140625 C 0.566406 -0.234375 0.375 -0.300781 0.375 -0.34375 L 4.8125 -17.296875 C 4.8125 -17.429688 5.953125 -17.5 8.234375 -17.5 C 10.523438 -17.5 11.671875 -17.429688 11.671875 -17.296875 L 16 -0.328125 C 16 -0.210938 15.613281 -0.117188 14.84375 -0.046875 C 14.070312 0.015625 13.460938 0.046875 13.015625 0.046875 Z M 6.484375 -7.0625 L 9.109375 -7.0625 L 7.984375 -12.234375 L 7.828125 -12.234375 Z M 6.484375 -7.0625 "/></g></g></g><g fill="#1e1b4b" fill-opacity="1"><g transform="translate(37.493144, 23.730534)"><g><path d="M 1.90625 -12.96875 C 1.625 -12.96875 1.421875 -13.351562 1.296875 -14.125 C 1.242188 -14.4375 1.21875 -14.785156 1.21875 -15.171875 C 1.21875 -15.554688 1.265625 -15.957031 1.359375 -16.375 C 1.503906 -17.132812 1.753906 -17.515625 2.109375 -17.515625 L 11.359375 -17.515625 C 12.378906 -17.515625 13.039062 -16.59375 13.34375 -14.75 C 13.40625 -14.34375 13.4375 -14.050781 13.4375 -13.875 L 7.578125 -4.984375 L 12.171875 -4.984375 C 12.179688 -4.984375 12.195312 -4.984375 12.21875 -4.984375 C 12.582031 -4.984375 12.835938 -4.582031 12.984375 -3.78125 C 13.054688 -3.394531 13.09375 -2.992188 13.09375 -2.578125 C 13.09375 -2.160156 13.039062 -1.71875 12.9375 -1.25 C 12.757812 -0.414062 12.476562 0 12.09375 0 L 2.359375 0 C 2.203125 0 1.925781 -0.503906 1.53125 -1.515625 C 1.144531 -2.523438 0.953125 -3.15625 0.953125 -3.40625 C 0.953125 -3.65625 0.976562 -3.8125 1.03125 -3.875 L 6.890625 -12.96875 Z M 1.90625 -12.96875 "/></g></g></g><g fill="#1e1b4b" fill-opacity="1"><g transform="translate(50.710291, 23.730534)"><g><path d="M 9.390625 -10.5625 C 9.703125 -10.5625 9.859375 -9.976562 9.859375 -8.8125 C 9.859375 -8.457031 9.820312 -8.039062 9.75 -7.5625 C 9.675781 -7.09375 9.539062 -6.859375 9.34375 -6.859375 L 6.15625 -6.859375 L 6.15625 -4.359375 L 10.765625 -4.359375 C 11.046875 -4.359375 11.238281 -3.988281 11.34375 -3.25 C 11.394531 -2.9375 11.421875 -2.597656 11.421875 -2.234375 C 11.421875 -1.878906 11.367188 -1.414062 11.265625 -0.84375 C 11.160156 -0.28125 10.992188 0 10.765625 0 L 2.203125 0 C 1.566406 0 1.25 -0.257812 1.25 -0.78125 L 1.25 -16.875 C 1.25 -17.300781 1.441406 -17.515625 1.828125 -17.515625 L 10.78125 -17.515625 C 11.132812 -17.515625 11.3125 -16.773438 11.3125 -15.296875 C 11.3125 -13.828125 11.132812 -13.09375 10.78125 -13.09375 L 6.15625 -13.09375 L 6.15625 -10.5625 Z M 9.390625 -10.5625 "/></g></g></g><g fill="#1e1b4b" fill-opacity="1"><g transform="translate(62.175129, 23.730534)"><g><path d="M 1 -1.484375 L 1 -17.046875 C 1 -17.398438 1.84375 -17.578125 3.53125 -17.578125 C 5.226562 -17.578125 6.078125 -17.398438 6.078125 -17.046875 L 6.078125 -4.78125 L 9.9375 -4.78125 C 10.238281 -4.78125 10.445312 -4.390625 10.5625 -3.609375 C 10.613281 -3.222656 10.640625 -2.828125 10.640625 -2.421875 C 10.640625 -2.023438 10.613281 -1.617188 10.5625 -1.203125 C 10.425781 -0.398438 10.207031 0 9.90625 0 L 2.203125 0 C 1.835938 0 1.546875 -0.148438 1.328125 -0.453125 C 1.109375 -0.753906 1 -1.097656 1 -1.484375 Z M 1 -1.484375 "/></g></g></g><g fill="#1e1b4b" fill-opacity="1"><g transform="translate(72.188056, 23.730534)"><g><path d="M 8.703125 0.25 C 6.359375 0.25 4.445312 -0.515625 2.96875 -2.046875 C 1.488281 -3.585938 0.75 -5.828125 0.75 -8.765625 C 0.75 -11.710938 1.492188 -13.945312 2.984375 -15.46875 C 4.484375 -16.988281 6.410156 -17.75 8.765625 -17.75 C 11.128906 -17.75 13.035156 -17 14.484375 -15.5 C 15.941406 -14.007812 16.671875 -11.75 16.671875 -8.71875 C 16.671875 -5.695312 15.925781 -3.445312 14.4375 -1.96875 C 12.957031 -0.488281 11.046875 0.25 8.703125 0.25 Z M 8.703125 -12.9375 C 7.910156 -12.9375 7.238281 -12.566406 6.6875 -11.828125 C 6.144531 -11.097656 5.875 -10.070312 5.875 -8.75 C 5.875 -7.425781 6.132812 -6.40625 6.65625 -5.6875 C 7.175781 -4.976562 7.859375 -4.625 8.703125 -4.625 C 9.546875 -4.625 10.226562 -4.984375 10.75 -5.703125 C 11.28125 -6.421875 11.546875 -7.445312 11.546875 -8.78125 C 11.546875 -10.113281 11.269531 -11.140625 10.71875 -11.859375 C 10.175781 -12.578125 9.503906 -12.9375 8.703125 -12.9375 Z M 8.703125 -12.9375 "/></g></g></g><g fill="#1e1b4b" fill-opacity="1"><g transform="translate(88.73459, 23.730534)"><g><path d="M 8.703125 0.25 C 6.359375 0.25 4.445312 -0.515625 2.96875 -2.046875 C 1.488281 -3.585938 0.75 -5.828125 0.75 -8.765625 C 0.75 -11.710938 1.492188 -13.945312 2.984375 -15.46875 C 4.484375 -16.988281 6.410156 -17.75 8.765625 -17.75 C 11.128906 -17.75 13.035156 -17 14.484375 -15.5 C 15.941406 -14.007812 16.671875 -11.75 16.671875 -8.71875 C 16.671875 -5.695312 15.925781 -3.445312 14.4375 -1.96875 C 12.957031 -0.488281 11.046875 0.25 8.703125 0.25 Z M 8.703125 -12.9375 C 7.910156 -12.9375 7.238281 -12.566406 6.6875 -11.828125 C 6.144531 -11.097656 5.875 -10.070312 5.875 -8.75 C 5.875 -7.425781 6.132812 -6.40625 6.65625 -5.6875 C 7.175781 -4.976562 7.859375 -4.625 8.703125 -4.625 C 9.546875 -4.625 10.226562 -4.984375 10.75 -5.703125 C 11.28125 -6.421875 11.546875 -7.445312 11.546875 -8.78125 C 11.546875 -10.113281 11.269531 -11.140625 10.71875 -11.859375 C 10.175781 -12.578125 9.503906 -12.9375 8.703125 -12.9375 Z M 8.703125 -12.9375 "/></g></g></g><g fill="#1e1b4b" fill-opacity="1"><g transform="translate(105.281125, 23.730534)"><g><path d="M 8.78125 -0.40625 C 8.78125 -0.0703125 7.953125 0.09375 6.296875 0.09375 C 4.648438 0.09375 3.828125 -0.0703125 3.828125 -0.40625 L 3.828125 -12.96875 L 0.828125 -12.96875 C 0.546875 -12.96875 0.34375 -13.351562 0.21875 -14.125 C 0.175781 -14.488281 0.15625 -14.859375 0.15625 -15.234375 C 0.15625 -15.617188 0.175781 -16 0.21875 -16.375 C 0.34375 -17.132812 0.546875 -17.515625 0.828125 -17.515625 L 11.71875 -17.515625 C 12 -17.515625 12.195312 -17.132812 12.3125 -16.375 C 12.363281 -16 12.390625 -15.617188 12.390625 -15.234375 C 12.390625 -14.859375 12.363281 -14.488281 12.3125 -14.125 C 12.195312 -13.351562 12 -12.96875 11.71875 -12.96875 L 8.78125 -12.96875 Z M 8.78125 -0.40625 "/></g></g></g></g></g></svg>